<?xml version="1.0" encoding="UTF-8" standalone="no"?>
<!-- Generator: Adobe Illustrator 15.0.0, SVG Export Plug-In . SVG Version: 6.00 Build 0)  -->
<!DOCTYPE svg  PUBLIC '-//W3C//DTD SVG 1.1//EN'  'http://www.w3.org/Graphics/SVG/1.1/DTD/svg11.dtd'>
<svg id="Layer_1" xmlns="http://www.w3.org/2000/svg" xml:space="preserve" height="29px" viewBox="0 0 34 29" width="34px" version="1.1" y="0px" x="0px" xmlns:xlink="http://www.w3.org/1999/xlink" enable-background="new 0 0 34 29">
<g fill="#909090">
	<path d="m4.305 21.035v7.961h7.962l15.924-15.923-7.961-7.963-15.925 15.925zm6.948 5.511h-2.047v-2.448h-2.45v-2.049l1.741-1.742 4.497 4.498-1.741 1.741zm9.589-18.182c0.279 0 0.42 0.14 0.42 0.421 0 0.127-0.044 0.236-0.133 0.326l-10.374 10.373c-0.09 0.089-0.197 0.134-0.326 0.134-0.279 0-0.42-0.142-0.42-0.421 0-0.127 0.045-0.235 0.134-0.325l10.373-10.374c0.09-0.089 0.198-0.134 0.326-0.134z"/>
	<path d="m32.592 5.205l-4.497-4.478c-0.484-0.484-1.064-0.727-1.741-0.727-0.689 0-1.264 0.243-1.724 0.727l-3.176 3.158 7.962 7.962 3.177-3.177c0.472-0.472 0.708-1.045 0.708-1.722 0-0.663-0.236-1.245-0.709-1.743z"/>
</g>
</svg>
