<?xml version="1.0" encoding="utf-8"?>
<!-- Generator: Adobe Illustrator 15.0.0, SVG Export Plug-In . SVG Version: 6.00 Build 0)  -->
<!DOCTYPE svg PUBLIC "-//W3C//DTD SVG 1.1//EN" "http://www.w3.org/Graphics/SVG/1.1/DTD/svg11.dtd">
<svg version="1.1" id="Layer_1" xmlns="http://www.w3.org/2000/svg" xmlns:xlink="http://www.w3.org/1999/xlink" x="0px" y="0px"
	 width="100px" height="73.875px" viewBox="0 0 100 73.875" enable-background="new 0 0 100 73.875" xml:space="preserve">
<polygon fill="#EAA122" points="50,73.875 0,0 100,0 "/>
<g>
	<path fill="#252525" d="M29.162,9.05v1.604h-4.808v3.21h4.058v1.612h-4.058v4.418h-2.032V9.05H29.162z"/>
	<path fill="#252525" d="M33.017,19.895h-2.025V9.05h2.025V19.895z"/>
	<path fill="#252525" d="M36.736,9.061c0.06,0.008,0.114,0.022,0.161,0.045c0.048,0.022,0.094,0.056,0.139,0.098
		c0.045,0.043,0.095,0.099,0.15,0.169l5.692,7.253c-0.02-0.176-0.034-0.347-0.042-0.515c-0.007-0.167-0.011-0.323-0.011-0.469V9.05
		h1.778v10.845h-1.042c-0.16,0-0.292-0.025-0.397-0.075c-0.105-0.05-0.208-0.14-0.308-0.27l-5.67-7.223
		c0.015,0.16,0.026,0.318,0.034,0.477c0.007,0.157,0.011,0.301,0.011,0.431v6.66h-1.777V9.05h1.057
		C36.602,9.05,36.676,9.054,36.736,9.061z"/>
	<path fill="#252525" d="M56.424,14.472c0,0.795-0.133,1.525-0.396,2.19c-0.262,0.665-0.639,1.237-1.117,1.718
		c-0.479,0.479-1.059,0.853-1.73,1.117c-0.676,0.265-1.424,0.397-2.242,0.397h-4.142V9.05h4.142c0.818,0,1.566,0.134,2.242,0.401
		c0.676,0.268,1.252,0.64,1.73,1.117c0.479,0.478,0.854,1.049,1.117,1.714C56.291,12.947,56.424,13.677,56.424,14.472z
		 M54.361,14.472c0-0.595-0.08-1.128-0.24-1.601c-0.16-0.473-0.387-0.873-0.682-1.2c-0.297-0.327-0.654-0.579-1.078-0.754
		c-0.422-0.175-0.897-0.263-1.428-0.263h-2.107v7.635h2.107c0.528,0,1.006-0.087,1.428-0.262c0.424-0.175,0.781-0.427,1.078-0.754
		c0.295-0.327,0.521-0.728,0.682-1.2C54.282,15.601,54.361,15.067,54.361,14.472z"/>
	<path fill="#252525" d="M65.266,18.267c0.393,0,0.739-0.064,1.047-0.194c0.31-0.13,0.567-0.312,0.779-0.548
		c0.213-0.234,0.375-0.52,0.488-0.854c0.111-0.335,0.168-0.71,0.168-1.125V9.05h2.018v6.495c0,0.645-0.104,1.241-0.311,1.788
		c-0.207,0.548-0.506,1.021-0.896,1.418c-0.39,0.397-0.861,0.707-1.418,0.93c-0.555,0.223-1.18,0.334-1.875,0.334
		c-0.693,0-1.318-0.111-1.875-0.334c-0.555-0.223-1.023-0.532-1.412-0.93s-0.686-0.87-0.894-1.418
		c-0.208-0.547-0.312-1.144-0.312-1.788V9.05h2.018v6.487c0,0.415,0.057,0.79,0.169,1.125s0.274,0.621,0.483,0.858
		c0.211,0.238,0.469,0.422,0.774,0.552C64.525,18.202,64.876,18.267,65.266,18.267z"/>
	<path fill="#252525" d="M77.633,11.022c-0.055,0.109-0.117,0.188-0.191,0.232c-0.07,0.045-0.156,0.067-0.258,0.067
		c-0.1,0-0.213-0.039-0.338-0.116c-0.125-0.078-0.271-0.164-0.441-0.259c-0.17-0.095-0.367-0.182-0.598-0.259
		c-0.227-0.078-0.496-0.116-0.805-0.116c-0.281,0-0.525,0.033-0.732,0.101c-0.207,0.068-0.383,0.162-0.523,0.281
		c-0.145,0.12-0.248,0.265-0.316,0.432c-0.07,0.168-0.105,0.352-0.105,0.552c0,0.255,0.072,0.467,0.215,0.637
		c0.143,0.17,0.33,0.315,0.566,0.436c0.232,0.12,0.502,0.228,0.803,0.322c0.299,0.095,0.605,0.196,0.918,0.304
		c0.312,0.108,0.619,0.232,0.918,0.375c0.301,0.143,0.568,0.322,0.803,0.54c0.236,0.218,0.424,0.483,0.566,0.799
		c0.143,0.314,0.215,0.697,0.215,1.147c0,0.49-0.084,0.948-0.252,1.376c-0.168,0.428-0.412,0.8-0.734,1.118
		c-0.322,0.317-0.717,0.567-1.182,0.75c-0.465,0.182-0.998,0.273-1.598,0.273c-0.348,0-0.688-0.034-1.021-0.102
		c-0.336-0.067-0.656-0.163-0.965-0.288s-0.596-0.275-0.861-0.45c-0.268-0.175-0.507-0.37-0.717-0.585l0.585-0.968
		c0.058-0.07,0.121-0.129,0.196-0.177c0.078-0.047,0.164-0.07,0.262-0.07c0.125,0,0.26,0.051,0.402,0.153
		c0.146,0.102,0.316,0.216,0.516,0.341s0.432,0.239,0.695,0.342c0.269,0.103,0.592,0.153,0.967,0.153
		c0.572,0,1.021-0.136,1.334-0.408c0.314-0.272,0.473-0.664,0.473-1.174c0-0.285-0.068-0.518-0.213-0.697
		c-0.145-0.181-0.332-0.332-0.564-0.454c-0.236-0.122-0.502-0.227-0.803-0.312c-0.303-0.085-0.605-0.177-0.916-0.277
		s-0.613-0.22-0.914-0.36c-0.303-0.14-0.568-0.322-0.805-0.547c-0.232-0.226-0.424-0.507-0.564-0.844
		c-0.145-0.338-0.213-0.754-0.213-1.249c0-0.395,0.078-0.78,0.234-1.155s0.389-0.707,0.688-0.997
		c0.304-0.29,0.674-0.522,1.113-0.697c0.439-0.176,0.943-0.263,1.508-0.263c0.643,0,1.23,0.1,1.771,0.3s1,0.48,1.381,0.84
		L77.633,11.022z"/>
</g>
<path fill="#FFFFFF" d="M50.001,43.292c-2.735,0-4.955-2.231-4.955-4.987c0-2.757,2.22-4.989,4.955-4.989
	c2.733,0,4.952,2.232,4.952,4.989C54.953,41.059,52.734,43.292,50.001,43.292 M50.001,27.304c-6.055,0-10.962,4.942-10.962,11.04
	c0,5.76,4.963,13.19,8.278,16.807c1.239,1.352,2.681,3.173,2.681,3.173s1.55-1.832,2.878-3.222
	c3.313-3.468,8.084-10.427,8.084-16.758C60.961,32.247,56.055,27.304,50.001,27.304"/>
</svg>
