<?xml version="1.0" encoding="utf-8"?>
<!-- Generator: Adobe Illustrator 18.0.0, SVG Export Plug-In . SVG Version: 6.00 Build 0)  -->
<!DOCTYPE svg PUBLIC "-//W3C//DTD SVG 1.1//EN" "http://www.w3.org/Graphics/SVG/1.1/DTD/svg11.dtd">
<svg version="1.1" id="Layer_1" xmlns="http://www.w3.org/2000/svg" xmlns:xlink="http://www.w3.org/1999/xlink" x="0px" y="0px"
	 viewBox="0 0 74 62.6" enable-background="new 0 0 74 62.6" xml:space="preserve">
<g>
	<path fill="#EAA00A" d="M37,40.2c-1,0-1.7-0.8-1.7-1.7c0-1,0.8-1.7,1.7-1.7c1,0,1.7,0.8,1.7,1.7C38.7,39.4,38,40.2,37,40.2
		 M37,34.7c-2.1,0-3.8,1.7-3.8,3.8c0,2,1.7,4.6,2.9,5.9c0.4,0.5,0.9,1.1,0.9,1.1s0.5-0.6,1-1.1c1.2-1.2,2.8-3.6,2.8-5.8
		C40.8,36.4,39.1,34.7,37,34.7"/>
	<rect x="21.3" y="61.7" fill="#EAA00A" width="31.3" height="0.9"/>
	<g>
		<path fill="#FFFFFF" d="M12.4,48.2C12.4,48.3,12.4,48.3,12.4,48.2c-0.1,0.1-0.1,0.1-0.2,0.1s-0.1,0-0.1,0c-0.1,0-0.1-0.1-0.2-0.1
			c-0.1,0-0.2-0.1-0.2-0.1c-0.1,0-0.2,0-0.3,0c-0.1,0-0.2,0-0.3,0c-0.1,0-0.2,0.1-0.2,0.1c-0.1,0-0.1,0.1-0.1,0.2c0,0.1,0,0.1,0,0.2
			c0,0.1,0,0.2,0.1,0.3c0.1,0.1,0.1,0.1,0.2,0.2s0.2,0.1,0.3,0.1c0.1,0,0.3,0.1,0.4,0.1s0.3,0.1,0.4,0.2c0.1,0.1,0.2,0.1,0.3,0.2
			c0.1,0.1,0.2,0.2,0.2,0.3c0.1,0.1,0.1,0.3,0.1,0.5c0,0.2,0,0.4-0.1,0.6c-0.1,0.2-0.2,0.3-0.3,0.5c-0.1,0.1-0.3,0.2-0.5,0.3
			c-0.2,0.1-0.4,0.1-0.7,0.1c-0.1,0-0.3,0-0.4,0s-0.3-0.1-0.4-0.1c-0.1-0.1-0.2-0.1-0.4-0.2c-0.1-0.1-0.2-0.2-0.3-0.2L9.9,51
			c0,0,0.1-0.1,0.1-0.1s0.1,0,0.1,0c0.1,0,0.1,0,0.2,0.1s0.1,0.1,0.2,0.1s0.2,0.1,0.3,0.1c0.1,0,0.2,0.1,0.4,0.1
			c0.2,0,0.4-0.1,0.6-0.2s0.2-0.3,0.2-0.5c0-0.1,0-0.2-0.1-0.3c-0.1-0.1-0.1-0.1-0.2-0.2S11.4,50,11.3,50s-0.3-0.1-0.4-0.1
			c-0.1,0-0.3-0.1-0.4-0.2c-0.1-0.1-0.2-0.1-0.3-0.2c-0.1-0.1-0.2-0.2-0.2-0.4c-0.1-0.1-0.1-0.3-0.1-0.5c0-0.2,0-0.3,0.1-0.5
			c0.1-0.2,0.2-0.3,0.3-0.4c0.1-0.1,0.3-0.2,0.5-0.3c0.2-0.1,0.4-0.1,0.6-0.1c0.3,0,0.5,0,0.7,0.1c0.2,0.1,0.4,0.2,0.6,0.3
			L12.4,48.2z"/>
		<path fill="#FFFFFF" d="M17.7,49.6c0,0.3-0.1,0.6-0.2,0.9c-0.1,0.3-0.3,0.5-0.5,0.7c-0.2,0.2-0.4,0.4-0.7,0.5
			c-0.3,0.1-0.6,0.2-0.9,0.2s-0.7-0.1-0.9-0.2c-0.3-0.1-0.5-0.3-0.7-0.5c-0.2-0.2-0.4-0.4-0.5-0.7c-0.1-0.3-0.2-0.6-0.2-0.9
			s0.1-0.6,0.2-0.9s0.3-0.5,0.5-0.7c0.2-0.2,0.4-0.4,0.7-0.5c0.3-0.1,0.6-0.2,0.9-0.2s0.7,0.1,0.9,0.2c0.3,0.1,0.5,0.3,0.7,0.5
			c0.2,0.2,0.4,0.4,0.5,0.7C17.6,49,17.7,49.3,17.7,49.6z M16.8,49.6c0-0.2,0-0.5-0.1-0.7c-0.1-0.2-0.2-0.4-0.3-0.5
			c-0.1-0.1-0.3-0.2-0.4-0.3c-0.2-0.1-0.4-0.1-0.6-0.1s-0.4,0-0.6,0.1c-0.2,0.1-0.3,0.2-0.5,0.3c-0.1,0.1-0.2,0.3-0.3,0.5
			C14,49.2,14,49.4,14,49.6s0,0.5,0.1,0.7c0.1,0.2,0.2,0.4,0.3,0.5c0.1,0.1,0.3,0.2,0.5,0.3c0.2,0.1,0.4,0.1,0.6,0.1s0.4,0,0.6-0.1
			c0.2-0.1,0.3-0.2,0.4-0.3c0.1-0.1,0.2-0.3,0.3-0.5S16.8,49.9,16.8,49.6z"/>
		<path fill="#FFFFFF" d="M22.2,51.9h-0.6c-0.1,0-0.1,0-0.2-0.1c0,0-0.1-0.1-0.1-0.1l-0.3-0.9H19l-0.3,0.9c0,0,0,0.1-0.1,0.1
			c0,0-0.1,0.1-0.2,0.1h-0.7l1.8-4.5h0.9L22.2,51.9z M19.2,50.2h1.4l-0.5-1.5c0-0.1-0.1-0.1-0.1-0.2c0-0.1-0.1-0.2-0.1-0.3
			c0,0.1-0.1,0.2-0.1,0.3c0,0.1-0.1,0.2-0.1,0.2L19.2,50.2z"/>
		<path fill="#FFFFFF" d="M23.5,50.3v1.6h-0.8v-4.5h1.5c0.3,0,0.6,0,0.8,0.1c0.2,0.1,0.4,0.2,0.5,0.3c0.1,0.1,0.2,0.3,0.3,0.5
			c0.1,0.2,0.1,0.4,0.1,0.6c0,0.2,0,0.4-0.1,0.6s-0.2,0.3-0.3,0.5s-0.3,0.2-0.5,0.3c-0.2,0.1-0.5,0.1-0.8,0.1H23.5z M23.5,49.7h0.6
			c0.2,0,0.3,0,0.4-0.1c0.1,0,0.2-0.1,0.3-0.2c0.1-0.1,0.1-0.2,0.2-0.3c0-0.1,0.1-0.2,0.1-0.3c0-0.1,0-0.2-0.1-0.3
			c0-0.1-0.1-0.2-0.2-0.2s-0.2-0.1-0.3-0.2S24.3,48,24.1,48h-0.6V49.7z"/>
		<path fill="#FFFFFF" d="M26.5,51.9v-4.5h1.6c0.3,0,0.5,0,0.8,0.1c0.2,0.1,0.4,0.1,0.5,0.2c0.1,0.1,0.2,0.2,0.3,0.4
			c0.1,0.1,0.1,0.3,0.1,0.5c0,0.1,0,0.2,0,0.3c0,0.1-0.1,0.2-0.1,0.3s-0.1,0.2-0.2,0.2c-0.1,0.1-0.2,0.1-0.4,0.2
			c0.6,0.1,0.9,0.5,0.9,1c0,0.2,0,0.4-0.1,0.5s-0.2,0.3-0.3,0.4c-0.1,0.1-0.3,0.2-0.5,0.3s-0.4,0.1-0.7,0.1H26.5z M27.4,49.3H28
			c0.3,0,0.5-0.1,0.6-0.2c0.1-0.1,0.2-0.3,0.2-0.5c0-0.2-0.1-0.4-0.2-0.5c-0.1-0.1-0.3-0.1-0.6-0.1h-0.7V49.3z M27.4,49.9v1.3h0.9
			c0.2,0,0.3,0,0.4-0.1c0.1,0,0.2-0.1,0.3-0.1s0.1-0.1,0.1-0.2c0-0.1,0-0.2,0-0.3c0-0.1,0-0.2,0-0.3c0-0.1-0.1-0.1-0.1-0.2
			C28.8,50,28.7,50,28.6,50c-0.1,0-0.2,0-0.4,0H27.4z"/>
		<path fill="#FFFFFF" d="M34.9,49.6c0,0.3-0.1,0.6-0.2,0.9c-0.1,0.3-0.3,0.5-0.5,0.7c-0.2,0.2-0.4,0.4-0.7,0.5
			C33.3,51.9,33,52,32.6,52s-0.7-0.1-0.9-0.2c-0.3-0.1-0.5-0.3-0.7-0.5c-0.2-0.2-0.4-0.4-0.5-0.7c-0.1-0.3-0.2-0.6-0.2-0.9
			s0.1-0.6,0.2-0.9s0.3-0.5,0.5-0.7c0.2-0.2,0.4-0.4,0.7-0.5c0.3-0.1,0.6-0.2,0.9-0.2s0.7,0.1,0.9,0.2c0.3,0.1,0.5,0.3,0.7,0.5
			c0.2,0.2,0.4,0.4,0.5,0.7C34.9,49,34.9,49.3,34.9,49.6z M34,49.6c0-0.2,0-0.5-0.1-0.7c-0.1-0.2-0.2-0.4-0.3-0.5
			c-0.1-0.1-0.3-0.2-0.4-0.3c-0.2-0.1-0.4-0.1-0.6-0.1s-0.4,0-0.6,0.1c-0.2,0.1-0.3,0.2-0.5,0.3c-0.1,0.1-0.2,0.3-0.3,0.5
			c-0.1,0.2-0.1,0.4-0.1,0.7s0,0.5,0.1,0.7c0.1,0.2,0.2,0.4,0.3,0.5c0.1,0.1,0.3,0.2,0.5,0.3c0.2,0.1,0.4,0.1,0.6,0.1s0.4,0,0.6-0.1
			c0.2-0.1,0.3-0.2,0.4-0.3c0.1-0.1,0.2-0.3,0.3-0.5S34,49.9,34,49.6z"/>
		<path fill="#FFFFFF" d="M36.6,49.6l-1.4-2.2H36c0.1,0,0.1,0,0.1,0c0,0,0,0,0.1,0.1l1,1.7c0,0,0-0.1,0-0.1c0,0,0-0.1,0-0.1l0.9-1.5
			c0-0.1,0.1-0.1,0.2-0.1h0.8l-1.5,2.2l1.5,2.4h-0.8c-0.1,0-0.1,0-0.1,0c0,0-0.1-0.1-0.1-0.1l-1-1.7c0,0,0,0,0,0.1c0,0,0,0,0,0.1
			l-1,1.6c0,0-0.1,0.1-0.1,0.1s-0.1,0-0.1,0h-0.8L36.6,49.6z"/>
		<path fill="#FFFFFF" d="M44.9,49.6c0,0.3-0.1,0.6-0.2,0.9s-0.3,0.5-0.5,0.7s-0.4,0.4-0.7,0.5s-0.6,0.2-0.9,0.2h-1.7v-4.5h1.7
			c0.3,0,0.7,0.1,0.9,0.2s0.5,0.3,0.7,0.5c0.2,0.2,0.4,0.4,0.5,0.7S44.9,49.3,44.9,49.6z M44.1,49.6c0-0.2,0-0.5-0.1-0.7
			c-0.1-0.2-0.2-0.4-0.3-0.5c-0.1-0.1-0.3-0.2-0.4-0.3c-0.2-0.1-0.4-0.1-0.6-0.1h-0.9v3.2h0.9c0.2,0,0.4,0,0.6-0.1
			c0.2-0.1,0.3-0.2,0.4-0.3c0.1-0.1,0.2-0.3,0.3-0.5S44.1,49.9,44.1,49.6z"/>
		<path fill="#FFFFFF" d="M46.5,51.9h-0.8v-4.5h0.8V51.9z"/>
		<path fill="#FFFFFF" d="M49.6,51.3c0.2,0,0.4,0,0.5-0.1c0.1,0,0.3-0.1,0.4-0.1v-0.8h-0.6c-0.1,0-0.1,0-0.1,0s0-0.1,0-0.1v-0.5h1.5
			v1.8c-0.1,0.1-0.2,0.2-0.4,0.2c-0.1,0.1-0.3,0.1-0.4,0.2c-0.1,0-0.3,0.1-0.5,0.1c-0.2,0-0.3,0-0.5,0c-0.3,0-0.6-0.1-0.9-0.2
			c-0.3-0.1-0.5-0.3-0.7-0.5c-0.2-0.2-0.4-0.4-0.5-0.7c-0.1-0.3-0.2-0.6-0.2-0.9c0-0.3,0.1-0.6,0.2-0.9c0.1-0.3,0.3-0.5,0.5-0.7
			c0.2-0.2,0.4-0.4,0.7-0.5c0.3-0.1,0.6-0.2,1-0.2c0.4,0,0.7,0.1,1,0.2c0.3,0.1,0.5,0.3,0.7,0.4L51,48.3c0,0.1-0.1,0.1-0.2,0.1
			c0,0-0.1,0-0.2,0c-0.1,0-0.1-0.1-0.2-0.1c-0.1,0-0.1-0.1-0.2-0.1s-0.2-0.1-0.3-0.1c-0.1,0-0.2,0-0.4,0c-0.2,0-0.4,0-0.6,0.1
			s-0.3,0.2-0.5,0.3c-0.1,0.1-0.2,0.3-0.3,0.5c-0.1,0.2-0.1,0.4-0.1,0.7c0,0.3,0,0.5,0.1,0.7c0.1,0.2,0.2,0.4,0.3,0.5
			c0.1,0.1,0.3,0.2,0.5,0.3C49.2,51.2,49.4,51.3,49.6,51.3z"/>
		<path fill="#FFFFFF" d="M53,51.9h-0.8v-4.5H53V51.9z"/>
		<path fill="#FFFFFF" d="M57.2,47.4v0.7h-1.4v3.8H55v-3.8h-1.4v-0.7H57.2z"/>
		<path fill="#FFFFFF" d="M61.2,51.9h-0.6c-0.1,0-0.1,0-0.2-0.1s-0.1-0.1-0.1-0.1l-0.3-0.9h-1.9l-0.3,0.9c0,0,0,0.1-0.1,0.1
			c0,0-0.1,0.1-0.2,0.1h-0.7l1.8-4.5h0.9L61.2,51.9z M58.3,50.2h1.4l-0.5-1.5c0-0.1-0.1-0.1-0.1-0.2c0-0.1-0.1-0.2-0.1-0.3
			c0,0.1-0.1,0.2-0.1,0.3c0,0.1-0.1,0.2-0.1,0.2L58.3,50.2z"/>
		<path fill="#FFFFFF" d="M62.5,51.2h1.8v0.7h-2.6v-4.5h0.8V51.2z"/>
		<path fill="#FFFFFF" d="M26.3,57.8v1.6h-0.8v-4.5h1.5c0.3,0,0.6,0,0.8,0.1c0.2,0.1,0.4,0.2,0.5,0.3c0.1,0.1,0.2,0.3,0.3,0.5
			c0.1,0.2,0.1,0.4,0.1,0.6c0,0.2,0,0.4-0.1,0.6s-0.2,0.3-0.3,0.5s-0.3,0.2-0.5,0.3c-0.2,0.1-0.5,0.1-0.8,0.1H26.3z M26.3,57.1h0.6
			c0.2,0,0.3,0,0.4-0.1c0.1,0,0.2-0.1,0.3-0.2c0.1-0.1,0.1-0.2,0.2-0.3c0-0.1,0.1-0.2,0.1-0.3c0-0.1,0-0.2-0.1-0.3
			c0-0.1-0.1-0.2-0.2-0.2s-0.2-0.1-0.3-0.2s-0.2-0.1-0.4-0.1h-0.6V57.1z"/>
		<path fill="#FFFFFF" d="M32.8,59.4h-0.6c-0.1,0-0.1,0-0.2-0.1c0,0-0.1-0.1-0.1-0.1l-0.3-0.9h-1.9l-0.3,0.9c0,0,0,0.1-0.1,0.1
			c0,0-0.1,0.1-0.2,0.1h-0.7l1.8-4.5h0.9L32.8,59.4z M29.9,57.7h1.4l-0.5-1.5c0-0.1-0.1-0.1-0.1-0.2c0-0.1-0.1-0.2-0.1-0.3
			c0,0.1-0.1,0.2-0.1,0.3c0,0.1-0.1,0.2-0.1,0.2L29.9,57.7z"/>
		<path fill="#FFFFFF" d="M34.2,59.4h-0.8v-4.5h0.8V59.4z"/>
		<path fill="#FFFFFF" d="M37.7,55.7C37.6,55.7,37.6,55.8,37.7,55.7c-0.1,0.1-0.1,0.1-0.2,0.1c0,0-0.1,0-0.1,0s-0.1-0.1-0.2-0.1
			c-0.1,0-0.2-0.1-0.2-0.1s-0.2,0-0.3,0c-0.1,0-0.2,0-0.3,0c-0.1,0-0.2,0.1-0.2,0.1s-0.1,0.1-0.1,0.2c0,0.1,0,0.1,0,0.2
			c0,0.1,0,0.2,0.1,0.3c0.1,0.1,0.1,0.1,0.2,0.2s0.2,0.1,0.3,0.1c0.1,0,0.3,0.1,0.4,0.1s0.3,0.1,0.4,0.2c0.1,0.1,0.2,0.1,0.3,0.2
			c0.1,0.1,0.2,0.2,0.2,0.3c0.1,0.1,0.1,0.3,0.1,0.5c0,0.2,0,0.4-0.1,0.6s-0.2,0.3-0.3,0.5c-0.1,0.1-0.3,0.2-0.5,0.3
			c-0.2,0.1-0.4,0.1-0.7,0.1c-0.1,0-0.3,0-0.4,0c-0.1,0-0.3-0.1-0.4-0.1s-0.2-0.1-0.4-0.2c-0.1-0.1-0.2-0.2-0.3-0.2l0.2-0.4
			c0,0,0.1-0.1,0.1-0.1s0.1,0,0.1,0c0.1,0,0.1,0,0.2,0.1c0.1,0,0.1,0.1,0.2,0.1s0.2,0.1,0.3,0.1c0.1,0,0.2,0.1,0.4,0.1
			c0.2,0,0.4-0.1,0.6-0.2s0.2-0.3,0.2-0.5c0-0.1,0-0.2-0.1-0.3c-0.1-0.1-0.1-0.1-0.2-0.2s-0.2-0.1-0.3-0.1c-0.1,0-0.3-0.1-0.4-0.1
			c-0.1,0-0.3-0.1-0.4-0.2c-0.1-0.1-0.2-0.1-0.3-0.2c-0.1-0.1-0.2-0.2-0.2-0.4c-0.1-0.1-0.1-0.3-0.1-0.5c0-0.2,0-0.3,0.1-0.5
			c0.1-0.2,0.2-0.3,0.3-0.4c0.1-0.1,0.3-0.2,0.5-0.3c0.2-0.1,0.4-0.1,0.6-0.1c0.3,0,0.5,0,0.7,0.1c0.2,0.1,0.4,0.2,0.6,0.3
			L37.7,55.7z"/>
		<path fill="#FFFFFF" d="M39.4,58.7h1.8v0.7h-2.6v-4.5h0.8V58.7z"/>
		<path fill="#FFFFFF" d="M44.7,54.9v0.7h-2v1.2h1.6v0.6h-1.6v1.3h2v0.7h-2.8v-4.5H44.7z"/>
		<path fill="#FFFFFF" d="M47.4,57.6v1.8h-0.8v-1.8l-1.6-2.8h0.7c0.1,0,0.1,0,0.2,0.1c0,0,0.1,0.1,0.1,0.1l0.8,1.5
			c0,0.1,0.1,0.2,0.1,0.3s0.1,0.2,0.1,0.2c0-0.1,0.1-0.2,0.1-0.2c0-0.1,0.1-0.2,0.1-0.2l0.8-1.5c0,0,0.1-0.1,0.1-0.1
			c0,0,0.1-0.1,0.2-0.1H49L47.4,57.6z"/>
	</g>
</g>
</svg>
