<?xml version="1.0" encoding="utf-8"?>
<!-- Generator: Adobe Illustrator 18.0.0, SVG Export Plug-In . SVG Version: 6.00 Build 0)  -->
<!DOCTYPE svg PUBLIC "-//W3C//DTD SVG 1.1//EN" "http://www.w3.org/Graphics/SVG/1.1/DTD/svg11.dtd">
<svg version="1.1" id="Layer_1" xmlns="http://www.w3.org/2000/svg" xmlns:xlink="http://www.w3.org/1999/xlink" x="0px" y="0px"
	 viewBox="0 0 612 792" enable-background="new 0 0 612 792" xml:space="preserve">
<path fill="#EAA00A" d="M334.1,469.6c-8.3,0-14.1-6.6-14.1-14.1c0-8.3,6.6-14.1,14.1-14.1c8.3,0,14.1,6.6,14.1,14.1
	C349,463,342.4,469.6,334.1,469.6 M334.1,424.1c-17.4,0-31.4,14.1-31.4,31.4c0,16.5,14.1,38,24,48.8c3.3,4.1,7.4,9.1,7.4,9.1
	s4.1-5,8.3-9.1c9.9-9.9,23.2-29.8,23.2-48C366.4,438.2,351.5,424.1,334.1,424.1"/>
<rect x="333.7" y="647.4" fill="#EAA00A" width="258.9" height="7.4"/>
<path fill="#FFFFFF" d="M352.3,535.8C352.3,536.6,351.5,536.6,352.3,535.8c-0.8,0.8-0.8,0.8-1.7,0.8s-0.8,0-0.8,0
	c-0.8,0-0.8-0.8-1.7-0.8s-1.7-0.8-1.7-0.8c-0.8,0-1.7,0-2.5,0s-1.7,0-2.5,0s-1.7,0.8-1.7,0.8c-0.8,0-0.8,0.8-0.8,1.7s0,0.8,0,1.7
	s0,1.7,0.8,2.5c-1.7,0-0.8,0.8,0,0.8c0.8,0,1.7,0.8,2.5,0.8s2.5,0.8,3.3,0.8s2.5,0.8,3.3,1.7c0.8,0.8,1.7,0.8,2.5,1.7
	c0.8,1.7,1.7,2.5,2.5,3.3s0.8,2.5,0.8,4.1s0,3.3-0.8,5s-1.7,2.5-2.5,4.1c-0.8,0.8-2.5,1.7-4.1,2.5c-1.7,0-4.1,0.8-5.8,0.8
	c-0.8,0-2.5,0-3.3,0s-2.5-0.8-3.3-0.8c-0.8-0.8-1.7-0.8-3.3-1.7c-0.8-0.8-1.7-1.7-2.5-1.7l2.5-4.1l0.8-0.8h0.8c0.8,0,0.8,0,1.7,0.8
	s0.8,0.8,1.7,0.8s1.7,0.8,2.5,0.8s1.7,0.8,3.3,0.8s3.3-0.8,5-1.7c1.7-0.8,1.7-2.5,1.7-4.1c0-0.8,0-1.7-0.8-2.5
	c-0.8-0.8-0.8-0.8-1.7-1.7c-0.8-0.8-3.3-0.8-4.1-0.8s-2.5-0.8-3.3-0.8c-0.8,0-2.5-0.8-3.3-1.7s-1.7-0.8-2.5-1.7s-1.7-1.7-1.7-3.3
	c-0.8-0.8-0.8-2.5-0.8-4.1c0-1.7,0-2.5,0.8-4.1c0.8-1.7,1.7-2.5,2.5-3.3c0.8-0.8,2.5-1.7,4.1-2.5c1.7-0.8,3.3-0.8,5-0.8
	c2.5,0,4.1,0,5.8,0.8c1.7,0.8,3.3,1.7,5,2.5L352.3,535.8z"/>
<path fill="#FFFFFF" d="M395.3,547.3c0,2.5-0.8,5-1.7,7.4s-2.5,4.1-4.1,5.8s-3.3,3.3-5.8,4.1c-1.7,1.7-4.1,2.5-7.4,2.5
	s-5.8-0.8-7.4-1.7c-2.5-0.8-4.1-2.5-5.8-4.1s-3.3-3.3-4.1-5.8s-1.7-5-1.7-7.4c0-2.5,0.8-5,1.7-7.4c0.8-2.5,2.5-5,4.1-6.6
	s3.3-3.3,5.8-4.1c2.5-0.8,5-1.7,7.4-1.7c2.5,0,5.8,0.8,7.4,1.7c2.5,0.8,4.1,2.5,5.8,4.1s3.3,3.3,4.1,5.8
	C395.3,542.4,395.3,544.9,395.3,547.3z M388.7,547.3c0-1.7,0-4.1-0.8-5.8c-0.8-1.7-1.7-3.3-2.5-4.1c-0.8-0.8-2.5-1.7-3.3-2.5
	c-1.7-0.8-3.3-0.8-5-0.8s-3.3,0-5,0.8c-1.7,0.8-2.5,1.7-4.1,2.5c-0.8,0.8-1.7,2.5-2.5,4.1c-0.8,1.7-0.8,3.3-0.8,5.8s0,4.1,0.8,5.8
	s1.7,3.3,2.5,4.1s2.5,1.7,4.1,2.5s3.3,0.8,5,0.8s3.3,0,5-0.8s2.5-1.7,3.3-2.5s1.7-2.5,2.5-4.1S388.7,549.8,388.7,547.3z"/>
<path fill="#FFFFFF" d="M432.5,566.4h-5c-0.8,0-0.8,0-1.7-0.8l-0.8-0.8l-2.5-7.4h-15.7l-2.5,7.4c0,0,0,0.8-0.8,0.8
	c0,0-0.8,0.8-1.7,0.8h-5.8l14.9-37.2h7.4L432.5,566.4z M408.6,552.3h11.6l-4.1-12.4c0-0.8-0.8-0.8-0.8-1.7s-0.8-1.7-0.8-2.5
	c0,0.8-0.8,1.7-0.8,2.5s-0.8,1.7-0.8,1.7L408.6,552.3z"/>
<path fill="#FFFFFF" d="M443.3,553.1v13.2h-6.6v-37.2h12.4c2.5,0,5,0,6.6,0.8c1.7,0.8,3.3,1.7,4.1,2.5c0.8,0.8,1.7,2.5,2.5,4.1
	c0.8,1.7,0.8,3.3,0.8,5s0,3.3-0.8,5c-0.8,1.7-1.7,2.5-2.5,4.1c-0.8,1.7-2.5,1.7-4.1,2.5c-1.7,0.8-4.1,0.8-6.6,0.8h-5.8V553.1z
	 M443.3,548.2h5c1.7,0,2.5,0,3.3-0.8c0.8,0,1.7-0.8,2.5-1.7c0.8-0.8,0.8-1.7,1.7-2.5c0-0.8,0.8-1.7,0.8-2.5s0-1.7-0.8-2.5
	c0-0.8-0.8-1.7-1.7-1.7s-1.7-0.8-2.5-1.7s-1.7-0.8-2.5-0.8h-5v14.1H443.3z"/>
<path fill="#FFFFFF" d="M468.9,566.4v-37.2h13.2c2.5,0,4.1,0,6.6,0.8c1.7,0.8,3.3,0.8,4.1,1.7c0.8,0.8,1.7,1.7,2.5,3.3
	c0.8,0.8,0.8,2.5,0.8,4.1c0,0.8,0,1.7,0,2.5s-0.8,1.7-0.8,2.5s-0.8,1.7-1.7,1.7c-0.8,0.8-1.7,0.8-3.3,1.7c5,0.8,7.4,4.1,7.4,8.3
	c0,1.7,0,3.3-0.8,4.1c-0.8,0.8-1.7,2.5-2.5,3.3c-0.8,0.8-2.5,1.7-4.1,2.5c-1.7,0.8-3.3,0.8-5.8,0.8H468.9z M475.5,544.9h5.8
	c2.5,0,4.1-0.8,5-1.7c0.8-0.8,1.7-2.5,1.7-4.1c0-1.7-0.8-3.3-1.7-4.1c-0.8,0-2.5-0.8-5-0.8h-5.8V544.9z M475.5,549.8v10.8h7.4
	c1.7,0,2.5,0,3.3-0.8c0.8,0,1.7-0.8,2.5-0.8c0.8,0,0.8-0.8,0.8-1.7c0-0.8,0-1.7,0-2.5c0-0.8,0-1.7,0-2.5c0-0.8-0.8-0.8-0.8-1.7
	c-1.7,0-2.5,0-3.3,0c-0.8,0-1.7,0-3.3,0h-6.6V549.8z"/>
<path fill="#FFFFFF" d="M537.6,547.3c0,2.5-0.8,5-1.7,7.4s-2.5,4.1-4.1,5.8c-1.7,1.7-3.3,3.3-5.8,4.1c-2.5,0.8-5,1.7-7.4,1.7
	s-5.8-0.8-7.4-1.7c-2.5-0.8-4.1-2.5-5.8-4.1c-1.7-1.7-3.3-3.3-4.1-5.8s-1.7-5-1.7-7.4c0-2.5,0.8-5,1.7-7.4c0.8-2.5,2.5-4.1,4.1-5.8
	c1.7-1.7,3.3-3.3,5.8-4.1c2.5-0.8,5-1.7,7.4-1.7s5.8,0.8,7.4,1.7c2.5,0.8,4.1,2.5,5.8,4.1c1.7,1.7,3.3,3.3,4.1,5.8
	C537.6,542.4,537.6,544.9,537.6,547.3z M531,547.3c0-1.7,0-4.1-0.8-5.8c-0.8-1.7-1.7-3.3-2.5-4.1c-0.8-0.8-2.5-1.7-3.3-2.5
	c-1.7-0.8-3.3-0.8-5-0.8s-3.3,0-5,0.8c-1.7,0.8-2.5,1.7-4.1,2.5c-0.8,0.8-1.7,2.5-2.5,4.1c-0.8,1.7-0.8,3.3-0.8,5.8s0,4.1,0.8,5.8
	s1.7,3.3,2.5,4.1s2.5,1.7,4.1,2.5c1.7,0.8,3.3,0.8,5,0.8s3.3,0,5-0.8s2.5-1.7,3.3-2.5s1.7-2.5,2.5-4.1S531,549.8,531,547.3z"/>
<path fill="#FFFFFF" d="M551.6,547.3L540,529.2h6.6c0.8,0,0.8,0,0.8,0s0,0,0.8,0.8l8.3,14.1v-0.8v-0.8L564,530
	c0-0.8,0.8-0.8,1.7-0.8h6.6l-12.4,18.2l12.4,19.8h-6.6c-0.8,0-0.8,0-0.8,0l-0.8-0.8l-8.3-14.1c0,0,0,0,0,0.8c0,0,0,0,0,0.8
	l-8.3,13.2l-0.8,0.8h-0.8h-6.6L551.6,547.3z"/>
<path fill="#FFFFFF" d="M620.3,547.3c0,2.5-0.8,5-1.7,7.4c-0.8,2.5-2.5,4.1-4.1,5.8s-3.3,3.3-5.8,4.1c-2.5,0.8-5,1.7-7.4,1.7h-14.1
	v-37.2h14.1c2.5,0,5.8,0.8,7.4,1.7c2.5,0.8,4.1,2.5,5.8,4.1s3.3,3.3,4.1,5.8S620.3,544.9,620.3,547.3z M613.7,547.3
	c0-1.7,0-4.1-0.8-5.8c-0.8-1.7-1.7-3.3-2.5-4.1c-0.8-0.8-2.5-1.7-3.3-2.5c-1.7-0.8-3.3-0.8-5-0.8h-7.4v26.5h7.4c1.7,0,3.3,0,5-0.8
	c1.7-0.8,2.5-1.7,3.3-2.5c0.8-0.8,1.7-2.5,2.5-4.1C613.7,551.5,613.7,549.8,613.7,547.3z"/>
<path fill="#FFFFFF" d="M649.2,529.2v5.8h-16.5v9.9h13.2v5.8h-13.2v10.8h16.5v5.8h-23.2V530h23.2V529.2z"/>
<path fill="#FFFFFF" d="M675.7,535.8C675.7,536.6,674.9,536.6,675.7,535.8c-0.8,0.8-0.8,0.8-1.7,0.8h-0.8c0,0-0.8-0.8-1.7-0.8
	s-1.7-0.8-1.7-0.8s-1.7,0-2.5,0c-0.8,0-1.7,0-2.5,0c-0.8,0-1.7,0.8-1.7,0.8s-0.8,0.8-0.8,1.7s0,0.8,0,1.7s0,1.7,0.8,2.5
	c0.8,0.8,0.8,0.8,1.7,1.7c0.8,0.8,1.7,0.8,2.5,0.8c0.8,0,2.5,0.8,3.3,0.8s2.5,0.8,3.3,1.7s1.7,0.8,2.5,1.7s1.7,1.7,1.7,2.5
	c0.8,0.8,0.8,2.5,0.8,4.1s0,3.3-0.8,5c-0.8,1.7-1.7,2.5-2.5,4.1c-0.8,0.8-2.5,1.7-4.1,2.5c-2.5,0-4.1,0.8-6.6,0.8
	c-0.8,0-2.5,0-3.3,0c-0.8,0-2.5-0.8-3.3-0.8s-1.7-0.8-3.3-1.7c-0.8-0.8-1.7-1.7-2.5-1.7l1.7-3.3l0.8-0.8h0.8c0.8,0,0.8,0,1.7,0.8
	c0.8,0,0.8,0.8,1.7,0.8s1.7,0.8,2.5,0.8s1.7,0.8,3.3,0.8s3.3-0.8,5-1.7s1.7-2.5,1.7-4.1c0-0.8,0-1.7-0.8-2.5
	c-0.8-0.8-0.8-0.8-1.7-1.7c-0.8-0.8-1.7-1.7-3.3-1.7c-0.8,0-2.5-0.8-3.3-0.8c-0.8,0-2.5-0.8-3.3-1.7s-1.7-0.8-2.5-1.7
	s-1.7-1.7-1.7-3.3c-0.8-0.8-0.8-2.5-0.8-4.1c0-1.7,0-2.5,0.8-4.1c0.8-1.7,1.7-2.5,2.5-3.3c0.8-0.8,2.5-1.7,4.1-2.5
	c1.7-0.8,3.3-0.8,5-0.8c2.5,0,4.1,0,5.8,0.8c1.7,0.8,3.3,1.7,5,2.5L675.7,535.8z"/>
<path fill="#FFFFFF" d="M691.4,566.4H684v-37.2h6.6v37.2H691.4z"/>
<path fill="#FFFFFF" d="M716.2,561.4c1.7,0,3.3,0,4.1-0.8c0.8,0,2.5-0.8,3.3-0.8v-6.6h-5c-0.8,0-0.8,0-0.8,0v-0.8v-4.1h12.4v14.9
	c-0.8,0.8-1.7,1.7-3.3,1.7c-0.8,0.8-2.5,0.8-3.3,1.7c-0.8,0-2.5,0.8-4.1,0.8s-2.5,0-4.1,0c-2.5,0-5-0.8-7.4-1.7
	c-2.5-0.8-4.1-2.5-5.8-4.1c-1.7-1.7-3.3-3.3-4.1-5.8s-1.7-5-1.7-7.4s0.8-5,1.7-7.4s2.5-4.1,4.1-5.8c1.7-1.7,3.3-3.3,5.8-4.1
	c2.5-0.8,5-1.7,8.3-1.7c3.3,0,5.8,0.8,8.3,1.7c2.5,0.8,4.1,2.5,5.8,3.3l-1.7,3.3c0,0.8-0.8,0.8-1.7,0.8c-0.8,0-0.8,0-1.7,0
	c-0.8,0-0.8-0.8-1.7-0.8c-0.8,0-0.8-0.8-1.7-0.8s-1.7-0.8-2.5-0.8s-1.7,0-3.3,0s-3.3,0-5,0.8s-2.5,1.7-4.1,2.5
	c-0.8,0.8-1.7,2.5-2.5,4.1s-0.8,3.3-0.8,5.8s0,4.1,0.8,5.8c0.8,1.7,1.7,3.3,2.5,4.1c0.8,0.8,2.5,1.7,4.1,2.5
	C712.9,560.6,714.6,561.4,716.2,561.4z"/>
<path fill="#FFFFFF" d="M741,529.2C741,529.2,741.8,529.2,741,529.2c0.8,0,0.8,0,0.8,0.8c0,0.8,0,0,0.8,0.8l19.8,24.8
	c0-0.8,0-0.8,0-1.7s0-0.8,0-1.7V530h5.8v37.2H765c-0.8,0-0.8,0-1.7,0l-0.8-0.8l-19.8-24.8c0,0.8,0,0.8,0,1.7c0,0.8,0,0.8,0,1.7V568
	h-5.8v-37.2L741,529.2L741,529.2z"/>
<path fill="#FFFFFF" d="M798.9,528.3c1.7,0,2.5,0,4.1,0.8c0.8,0.8,2.5,0.8,3.3,1.7s1.7,1.7,1.7,2.5c0.8,0.8,0.8,1.7,0.8,3.3
	l-4.1,0.8l0,0l0,0h-0.8c0,0,0,0-0.8-0.8c0-0.8,0-0.8-0.8-1.7c-0.8-0.8-0.8-0.8-0.8-0.8l-0.8-0.8c-0.8,0-0.8,0-1.7,0s-1.7,0-1.7,0
	c-0.8,0-0.8,0.8-1.7,0.8c-0.8,0-0.8,0.8-0.8,1.7s0,0.8,0,1.7s0,0.8,0,1.7s0,0.8,0.8,1.7c0,0.8,0.8,0.8,0.8,1.7
	c0,0.8,0.8,0.8,1.7,1.7l9.9,9.9c0.8-0.8,0.8-2.5,1.7-3.3c0-0.8,0.8-2.5,0.8-3.3v-0.8h0.8h4.1c0,2.5,0,4.1-0.8,6.6
	c-0.8,1.7-1.7,4.1-2.5,5.8l7.4,8.3H813h-0.8h-0.8h-0.8c0,0-0.8,0-0.8-0.8l-2.5-2.5c-1.7,1.7-3.3,2.5-5.8,3.3c-1.7-0.8-4.1,0-6.6,0
	c-1.7,0-2.5,0-4.1-0.8c-1.7-0.8-2.5-0.8-3.3-2.5c-0.8-0.8-1.7-1.7-2.5-3.3s-1.7-2.5-1.7-4.1c0-0.8,0-2.5,0.8-3.3
	c0-0.8,0.8-1.7,1.7-3.3c0.8-0.8,1.7-1.7,2.5-2.5s1.7-1.7,3.3-1.7c-0.8-1.7-1.7-2.5-1.7-4.1c-0.8-0.8-0.8-2.5-0.8-3.3
	c0-1.7,0-2.5,0.8-3.3s0.8-2.5,1.7-3.3s1.7-1.7,3.3-1.7C795.6,529.2,797.3,528.3,798.9,528.3z M789.8,555.6c0,0.8,0,1.7,0.8,2.5
	c0,0.8,0.8,1.7,1.7,1.7c0.8,0.8,0.8,0.8,1.7,0.8s1.7,0.8,2.5,0.8c1.7,0,2.5,0,4.1-0.8c1.7-0.8,2.5-0.8,3.3-1.7l-9.9-9.9
	c-1.7,0.8-2.5,1.7-3.3,3.3C790.6,553.1,789.8,554,789.8,555.6z"/>
<path fill="#FFFFFF" d="M839.4,553.1v13.2h-6.6v-37.2h12.4c2.5,0,5,0,6.6,0.8s3.3,1.7,4.1,2.5c0.8,0.8,1.7,2.5,2.5,4.1
	c0.8,1.7,0.8,3.3,0.8,5s0,3.3-0.8,5s-1.7,2.5-2.5,4.1c-0.8,1.7-2.5,1.7-4.1,2.5c-1.7,0.8-4.1,0.8-6.6,0.8h-5.8V553.1z M839.4,548.2
	h5c1.7,0,2.5,0,3.3-0.8c0.8,0,1.7-0.8,2.5-1.7s0.8-1.7,1.7-2.5c0-0.8,0.8-1.7,0.8-2.5s0-1.7-0.8-2.5c0-0.8-0.8-1.7-1.7-1.7
	c-0.8-0.8-1.7-0.8-2.5-1.7s-1.7-0.8-2.5-0.8h-5v14.1H839.4z"/>
<path fill="#FFFFFF" d="M871.7,551.5v14.9h-6.6v-37.2h11.6c2.5,0,5,0,6.6,0.8s3.3,1.7,4.1,2.5s1.7,2.5,2.5,3.3
	c0.8,0.8,0.8,2.5,0.8,4.1c0,1.7,0,2.5-0.8,3.3c0,0.8-0.8,2.5-1.7,3.3s-1.7,1.7-2.5,2.5c-0.8,0.8-2.5,0.8-3.3,1.7
	c0.8,0.8,1.7,0.8,2.5,2.5l9.1,14.1h-6.6c-0.8,0-0.8,0-1.7,0c-0.8,0-0.8-0.8-0.8-0.8l-7.4-11.6c0-0.8-0.8-0.8-0.8-0.8s-0.8,0-1.7,0
	h-3.3V551.5z M871.7,546.5h4.1c1.7,0,2.5,0,3.3-0.8c0.8,0,1.7-0.8,2.5-1.7c0.8-0.8,0.8-1.7,1.7-1.7c0-0.8,0.8-1.7,0.8-2.5
	c0-1.7-0.8-3.3-1.7-4.1c-1.7-0.8-3.3-1.7-5.8-1.7h-4.1v12.4H871.7z"/>
<path fill="#FFFFFF" d="M906.4,566.4H899v-37.2h6.6v37.2H906.4z"/>
<path fill="#FFFFFF" d="M918.8,529.2C918.8,529.2,919.7,529.2,918.8,529.2c0.8,0,0.8,0,0.8,0.8c0,0,0,0,0.8,0.8l19.8,24.8
	c0-0.8,0-0.8,0-1.7s0-0.8,0-1.7V530h5.8v37.2h-3.3c-0.8,0-0.8,0-1.7,0l-0.8-0.8l-19.8-24.8c0,0.8,0,0.8,0,1.7c0,0.8,0,0.8,0,1.7V568
	h-5.8v-37.2L918.8,529.2L918.8,529.2z"/>
<path fill="#FFFFFF" d="M980,529.2v5.8h-11.6v31.4h-6.6v-31.4h-11.6v-5.8H980z"/>
<path fill="#FFFFFF" d="M349,623.4c1.7,0,3.3,0,4.1-0.8s2.5-0.8,3.3-0.8v-6.6h-5c-0.8,0-0.8,0-0.8,0v-0.8v-4.1h12.4v14.9
	c-0.8,0.8-1.7,1.7-3.3,1.7s-2.5,0.8-3.3,1.7c-0.8,0-2.5,0.8-4.1,0.8s-2.5,0-4.1,0c-2.5,0-5-0.8-7.4-1.7c-2.5-0.8-4.1-2.5-5.8-4.1
	s-3.3-3.3-4.1-5.8c-0.8-2.5-1.7-5-1.7-7.4s0.8-5,1.7-7.4c0.8-2.5,2.5-4.1,4.1-5.8s3.3-3.3,5.8-4.1c2.5-0.8,5-1.7,8.3-1.7
	s5.8,0.8,8.3,1.7s4.1,2.5,5.8,3.3l-1.7,3.3c0,0.8-0.8,0.8-1.7,0.8s-0.8,0-1.7,0s-0.8-0.8-1.7-0.8c-0.8,0-0.8-0.8-1.7-0.8
	s-1.7-0.8-2.5-0.8c-0.8,0-1.7,0-3.3,0s-3.3,0-5,0.8s-2.5,0-3.3,1.7c-0.8,0.8-1.7,2.5-2.5,4.1c-0.8,1.7-0.8,3.3-0.8,5.8
	s0,4.1,0.8,5.8c0.8,1.7,1.7,3.3,2.5,4.1s2.5,1.7,4.1,2.5C345.7,622.6,347.4,623.4,349,623.4z"/>
<path fill="#FFFFFF" d="M376.3,622.6h14.9v5.8h-21.5v-37.2h6.6L376.3,622.6L376.3,622.6z"/>
<path fill="#FFFFFF" d="M429.2,628.4h-5c-0.8,0-0.8,0-1.7-0.8l-0.8-0.8l-2.5-7.4h-15.7l-2.5,7.4c0,0,0,0.8-0.8,0.8
	c0,0-0.8,0.8-1.7,0.8h-5.8l14.9-37.2h7.4L429.2,628.4z M405.2,614.3h11.6l-4.1-12.4c0-0.8-0.8-0.8-0.8-1.7s-0.8-1.7-0.8-2.5
	c0,0.8-0.8,1.7-0.8,2.5c0,0.8-0.8,1.7-0.8,1.7L405.2,614.3z"/>
<path fill="#FFFFFF" d="M453.2,597.8C452.4,597.8,452.4,598.6,453.2,597.8c-0.8,0.8-0.8,0.8-1.7,0.8c-0.8,0-0.8,0-0.8,0
	c-0.8,0-0.8-0.8-1.7-0.8s-1.7-0.8-1.7-0.8c-0.8,0-1.7,0-2.5,0s-1.7,0-2.5,0s-1.7,0.8-1.7,0.8c-0.8,0-0.8,0.8-0.8,1.7
	c0,0.8,0,0.8,0,1.7s0,1.7,0.8,2.5s0.8,0.8,1.7,1.7s1.7,0.8,2.5,0.8s2.5,0.8,3.3,0.8s2.5,0.8,3.3,1.7c0.8,0.8,1.7,0.8,2.5,1.7
	s1.7,1.7,1.7,2.5c0.8,0.8,0.8,2.5,0.8,4.1s0,3.3-0.8,5s-1.7,2.5-2.5,4.1c-0.8,0.8-2.5,1.7-4.1,2.5c-1.7,0.8-3.3,0.8-5.8,0.8
	c-0.8,0-2.5,0-3.3,0s-2.5-0.8-3.3-0.8c-0.8-0.8-1.7-0.8-3.3-1.7c-0.8-0.8-1.7-1.7-2.5-1.7l1.7-3.3l0.8-0.8h0.8c0.8,0,0.8,0,1.7,0.8
	s0.8,0.8,1.7,0.8s1.7,0.8,2.5,0.8s1.7,0.8,3.3,0.8s3.3-0.8,5-1.7c1.7-0.8,1.7-2.5,1.7-4.1c0-0.8,0-1.7-0.8-2.5
	c-0.8-0.8-0.8-0.8-1.7-1.7c-0.8-0.8-1.7-0.8-2.5-0.8s-2.5-0.8-3.3-0.8s-2.5-0.8-3.3-1.7s-1.7-0.8-2.5-1.7s-1.7-1.7-1.7-3.3
	c-0.8-0.8-0.8-2.5-0.8-4.1s0-2.5,0.8-4.1s1.7-2.5,2.5-3.3s2.5-1.7,4.1-2.5s3.3-0.8,5-0.8c2.5,0,4.1,0,5.8,0.8c1.7,0.8,3.3,1.7,5,2.5
	L453.2,597.8z"/>
<path fill="#FFFFFF" d="M478,623.4c1.7,0,3.3,0,4.1-0.8s2.5-0.8,3.3-0.8v-6.6h-5c-0.8,0-0.8,0-0.8,0v-0.8v-4.1h12.4v14.9
	c-0.8,0.8-1.7,1.7-3.3,1.7c-1.7,0-2.5,0.8-3.3,1.7c-0.8,0-2.5,0.8-4.1,0.8s-2.5,0-4.1,0c-2.5,0-5-0.8-7.4-1.7
	c-2.5-0.8-4.1-2.5-5.8-4.1c-1.7-1.7-3.3-3.3-4.1-5.8s-1.7-5-1.7-7.4s0.8-5,1.7-7.4s2.5-4.1,4.1-5.8c1.7-1.7,3.3-3.3,5.8-4.1
	c2.5-0.8,5-1.7,8.3-1.7s5.8,0.8,8.3,1.7c2.5,0.8,4.1,2.5,5.8,3.3l-1.7,3.3c0,0.8-0.8,0.8-1.7,0.8c-0.8,0-0.8,0-1.7,0
	c-0.8,0-0.8-0.8-1.7-0.8c-0.8,0-0.8-0.8-1.7-0.8c-0.8,0-1.7-0.8-2.5-0.8c-0.8,0-1.7,0-3.3,0s-3.3,0-5,0.8c-1.7,0.8-2.5,1.7-4.1,2.5
	c-0.8,0.8-1.7,2.5-2.5,4.1c-0.8,0.8-0.8,2.5-0.8,4.1c0,2.5,0,4.1,0.8,5.8s1.7,3.3,2.5,4.1s2.5,1.7,4.1,2.5
	C473.9,622.6,475.5,623.4,478,623.4z"/>
<path fill="#FFFFFF" d="M533.4,609.4c0,2.5-0.8,5-1.7,7.4c-0.8,2.5-2.5,4.1-4.1,5.8s-3.3,3.3-5.8,4.1s-5,1.7-7.4,1.7
	c-2.5,0-5.8-0.8-7.4-1.7c-2.5-0.8-4.1-2.5-5.8-4.1s-3.3-3.3-4.1-5.8c-0.8-2.5-1.7-5-1.7-7.4c0-2.5,0.8-5,1.7-7.4
	c0.8-2.5,2.5-4.1,4.1-5.8s3.3-3.3,5.8-4.1s5-1.7,7.4-1.7c2.5,0,5.8,0.8,7.4,1.7c2.5,0.8,4.1,2.5,5.8,4.1s3.3,3.3,4.1,5.8
	C533.4,604.4,533.4,606.9,533.4,609.4z M526.8,609.4c0-1.7,0-4.1-0.8-5.8s-1.7-3.3-2.5-4.1c-0.8-0.8-2.5-1.7-3.3-2.5
	c-1.7-0.8-3.3-0.8-5-0.8c-1.7,0-3.3,0-5,0.8c-1.7,0.8-2.5,1.7-4.1,2.5c-0.8,0.8-1.7,2.5-2.5,4.1c-0.8,1.7-0.8,3.3-0.8,5.8
	c0,2.5,0,4.1,0.8,5.8c0.8,1.7,1.7,3.3,2.5,4.1c0.8,0.8,2.5,1.7,4.1,2.5c1.7,0.8,3.3,0.8,5,0.8c1.7,0,3.3,0,5-0.8s2.5-1.7,3.3-2.5
	s1.7-2.5,2.5-4.1S526.8,611.9,526.8,609.4z"/>
<path fill="#FFFFFF" d="M535.9,591.2h5.8c0.8,0,0.8,0,1.7,0.8c0.8,0.8,0.8,0.8,0.8,0.8l6.6,22.3c0,0.8,0,0.8,0.8,1.7s0,1.7,0,1.7
	c0-0.8,0-1.7,0.8-1.7c0.8,0,0-1.7,0.8-1.7l7.4-22.3c0,0,0-0.8,0.8-0.8c0,0,0.8-0.8,1.7-0.8h1.7c0.8,0,0.8,0,1.7,0.8
	c0.8,0.8,0.8,0.8,0.8,0.8l7.4,22.3c0,0.8,0.8,2.5,0.8,3.3c0-0.8,0-1.7,0-1.7s0-0.8,0-1.7l6.6-22.3c0-0.8,0-0.8,0.8-0.8
	c0,0,0.8-0.8,1.7-0.8h5.8l-11.6,37.2h-6.6l-8.3-25.6v-0.8v-0.8c0,0.8,0,0.8,0,0.8v0.8l-8.3,25.6h-6.6L535.9,591.2z"/>
<path fill="#FFFFFF" d="M622.8,597.8C622.8,597.8,622.8,598.6,622.8,597.8c-0.8,0.8-0.8,0.8-1.7,0.8h-0.8c-0.8,0-0.8-0.8-1.7-0.8
	S617,597,617,597c-0.8,0-1.7,0-2.5,0s-1.7,0-2.5,0s-1.7,0.8-1.7,0.8c-0.8,0-0.8,0.8-0.8,1.7c0,0.8,0,0.8,0,1.7s0,1.7,0.8,2.5
	s0.8,0.8,1.7,1.7s1.7,0.8,2.5,0.8s2.5,0.8,3.3,0.8c0.8,0,2.5,0.8,3.3,1.7c0.8,0.8,1.7,0.8,2.5,1.7c0.8,0.8,1.7,1.7,1.7,2.5
	c0.8,0.8,0.8,2.5,0.8,4.1s0,3.3-0.8,5c-0.8,1.7-1.7,2.5-2.5,4.1c-0.8,0.8-2.5,1.7-4.1,2.5c-1.7,0.8-3.3,0.8-5.8,0.8
	c-0.8,0-2.5,0-3.3,0s-2.5-0.8-3.3-0.8c-0.8-0.8-1.7-0.8-3.3-1.7c-0.8-0.8-1.7-1.7-2.5-1.7l1.7-3.3c0,0,0-0.8,0.8-0.8
	c0.8,0,0.8,0,0.8,0c0.8,0,0.8,0,1.7,0.8c0.8,0,0.8,0.8,1.7,0.8c0.8,0,1.7,0.8,2.5,0.8c0.8,0,1.7,0.8,3.3,0.8s3.3-0.8,5-1.7
	c1.7-0.8,1.7-2.5,1.7-4.1c0-0.8,0-1.7-0.8-2.5c-0.8-0.8-0.8-0.8-1.7-1.7c-0.8-0.8-1.7-0.8-2.5-0.8s-2.5-0.8-3.3-0.8
	s-2.5-0.8-3.3-1.7c-0.8-0.8-1.7-0.8-2.5-1.7c-0.8-0.8-1.7-1.7-1.7-3.3c-0.8-0.8-0.8-2.5-0.8-4.1s0-2.5,0.8-4.1
	c0.8-1.7,1.7-2.5,2.5-3.3c0.8-0.8,2.5-1.7,4.1-2.5c1.7-0.8,3.3-0.8,5-0.8c2.5,0,4.1,0,5.8,0.8c1.7,0.8,3.3,1.7,5,2.5L622.8,597.8z"
	/>
<path fill="#FFFFFF" d="M666.6,609.4c0,2.5-0.8,5-1.7,7.4c-0.8,2.5-2.5,4.1-4.1,5.8c-1.7,1.7-3.3,3.3-5.8,4.1s-5,1.7-7.4,1.7
	c-2.5,0-5.8-0.8-7.4-1.7c-2.5-0.8-4.1-2.5-5.8-4.1c-1.7-1.7-3.3-3.3-4.1-5.8c-0.8-2.5-1.7-5-1.7-7.4c0-2.5,0.8-5,1.7-7.4
	c0.8-2.5,2.5-4.1,4.1-5.8c1.7-1.7,3.3-3.3,5.8-4.1s5-1.7,7.4-1.7c2.5,0,5.8,0.8,7.4,1.7s4.1,2.5,5.8,4.1c1.7,1.7,3.3,3.3,4.1,5.8
	C665.8,604.4,666.6,606.9,666.6,609.4z M659.1,609.4c0-1.7,0-4.1-0.8-5.8s-1.7-3.3-2.5-4.1s-2.5-1.7-3.3-2.5c-1.7-0.8-3.3-0.8-5-0.8
	s-3.3,0-5,0.8c-1.7,0.8-2.5,1.7-4.1,2.5c-0.8,0.8-1.7,2.5-2.5,4.1s-0.8,3.3-0.8,5.8c0,2.5,0,4.1,0.8,5.8s1.7,3.3,2.5,4.1
	s2.5,1.7,4.1,2.5s3.3,0.8,5,0.8s3.3,0,5-0.8s2.5-1.7,3.3-2.5s1.7-2.5,2.5-4.1S659.1,611.9,659.1,609.4z"/>
<path fill="#FFFFFF" d="M686.4,622.6c1.7,0,2.5,0,3.3-0.8s1.7-0.8,2.5-1.7s1.7-1.7,1.7-3.3c0-0.8,0.8-2.5,0.8-4.1v-22.3h6.6v22.3
	c0,2.5,0,4.1-0.8,5.8c-0.8,1.7-1.7,3.3-3.3,5c-1.7,1.7-3.3,2.5-5,3.3c-1.7,0.8-4.1,0.8-6.6,0.8s-4.1,0-6.6-0.8s-3.3-1.7-5-3.3
	c-1.7-1.7-2.5-3.3-3.3-5s-0.8-4.1-0.8-5.8v-22.3h6.6v22.3c0,1.7,0,2.5,0.8,4.1c0,0.8,0.8,2.5,1.7,3.3s1.7,1.7,2.5,1.7
	C684,622.6,685.6,622.6,686.4,622.6z"/>
<path fill="#FFFFFF" d="M735.2,591.2v5.8h-11.6v31.4H717V597h-11.6v-5.8H735.2z"/>
<path fill="#FFFFFF" d="M771.6,628.4H765v-16.5h-18.2v16.5h-6.6v-37.2h6.6v15.7h17.4v-15.7h7.4V628.4z"/>
</svg>
