<?xml version="1.0" encoding="utf-8"?>
<!-- Generator: Adobe Illustrator 18.0.0, SVG Export Plug-In . SVG Version: 6.00 Build 0)  -->
<!DOCTYPE svg PUBLIC "-//W3C//DTD SVG 1.1//EN" "http://www.w3.org/Graphics/SVG/1.1/DTD/svg11.dtd">
<svg version="1.1" id="Layer_1" xmlns="http://www.w3.org/2000/svg" xmlns:xlink="http://www.w3.org/1999/xlink" x="0px" y="0px"
	 viewBox="0 0 74 62.6" enable-background="new 0 0 74 62.6" xml:space="preserve">
<path fill="#EAA00A" d="M37,40.2c-1,0-1.7-0.8-1.7-1.7c0-1,0.8-1.7,1.7-1.7c1,0,1.7,0.8,1.7,1.7C38.7,39.4,38,40.2,37,40.2 M37,34.7
	c-2.1,0-3.8,1.7-3.8,3.8c0,2,1.7,4.6,2.9,5.9c0.4,0.5,0.9,1.1,0.9,1.1s0.5-0.6,1-1.1c1.2-1.2,2.8-3.6,2.8-5.8
	C40.8,36.4,39.1,34.7,37,34.7"/>
<rect x="21.3" y="61.7" fill="#EAA00A" width="31.3" height="0.9"/>
<g>
	<path fill="#FFFFFF" d="M0.4,48.2C0.4,48.3,0.4,48.3,0.4,48.2c-0.1,0.1-0.1,0.1-0.2,0.1s-0.1,0-0.1,0c-0.1,0-0.1-0.1-0.2-0.1
		c-0.1,0-0.2-0.1-0.2-0.1c-0.1,0-0.2,0-0.3,0c-0.1,0-0.2,0-0.3,0c-0.1,0-0.2,0.1-0.2,0.1c-0.1,0-0.1,0.1-0.1,0.2c0,0.1,0,0.1,0,0.2
		c0,0.1,0,0.2,0.1,0.3C-1.2,48.9-1.1,49-1,49s0.2,0.1,0.3,0.1c0.1,0,0.3,0.1,0.4,0.1s0.3,0.1,0.4,0.2c0.1,0.1,0.2,0.1,0.3,0.2
		c0.1,0.1,0.2,0.2,0.2,0.3c0.1,0.1,0.1,0.3,0.1,0.5c0,0.2,0,0.4-0.1,0.6c-0.1,0.2-0.2,0.3-0.3,0.5c-0.1,0.1-0.3,0.2-0.5,0.3
		C-0.4,51.9-0.6,52-0.9,52c-0.1,0-0.3,0-0.4,0s-0.3-0.1-0.4-0.1c-0.1-0.1-0.2-0.1-0.4-0.2c-0.1-0.1-0.2-0.2-0.3-0.2l0.2-0.4
		c0,0,0.1-0.1,0.1-0.1s0.1,0,0.1,0c0.1,0,0.1,0,0.2,0.1s0.1,0.1,0.2,0.1s0.2,0.1,0.3,0.1c0.1,0,0.2,0.1,0.4,0.1
		c0.2,0,0.4-0.1,0.6-0.2s0.2-0.3,0.2-0.5c0-0.1,0-0.2-0.1-0.3c-0.1-0.1-0.1-0.1-0.2-0.2S-0.6,50-0.7,50s-0.3-0.1-0.4-0.1
		c-0.1,0-0.3-0.1-0.4-0.2c-0.1-0.1-0.2-0.1-0.3-0.2c-0.1-0.1-0.2-0.2-0.2-0.4c-0.1-0.1-0.1-0.3-0.1-0.5c0-0.2,0-0.3,0.1-0.5
		c0.1-0.2,0.2-0.3,0.3-0.4c0.1-0.1,0.3-0.2,0.5-0.3c0.2-0.1,0.4-0.1,0.6-0.1c0.3,0,0.5,0,0.7,0.1c0.2,0.1,0.4,0.2,0.6,0.3L0.4,48.2z
		"/>
	<path fill="#FFFFFF" d="M5.7,49.6c0,0.3-0.1,0.6-0.2,0.9c-0.1,0.3-0.3,0.5-0.5,0.7c-0.2,0.2-0.4,0.4-0.7,0.5C4,51.9,3.7,52,3.4,52
		s-0.7-0.1-0.9-0.2c-0.3-0.1-0.5-0.3-0.7-0.5c-0.2-0.2-0.4-0.4-0.5-0.7c-0.1-0.3-0.2-0.6-0.2-0.9s0.1-0.6,0.2-0.9s0.3-0.5,0.5-0.7
		c0.2-0.2,0.4-0.4,0.7-0.5c0.3-0.1,0.6-0.2,0.9-0.2s0.7,0.1,0.9,0.2C4.6,47.6,4.8,47.8,5,48c0.2,0.2,0.4,0.4,0.5,0.7
		C5.6,49,5.7,49.3,5.7,49.6z M4.8,49.6c0-0.2,0-0.5-0.1-0.7c-0.1-0.2-0.2-0.4-0.3-0.5c-0.1-0.1-0.3-0.2-0.4-0.3
		c-0.2-0.1-0.4-0.1-0.6-0.1s-0.4,0-0.6,0.1c-0.2,0.1-0.3,0.2-0.5,0.3c-0.1,0.1-0.2,0.3-0.3,0.5C2,49.2,2,49.4,2,49.6s0,0.5,0.1,0.7
		c0.1,0.2,0.2,0.4,0.3,0.5c0.1,0.1,0.3,0.2,0.5,0.3c0.2,0.1,0.4,0.1,0.6,0.1s0.4,0,0.6-0.1c0.2-0.1,0.3-0.2,0.4-0.3
		c0.1-0.1,0.2-0.3,0.3-0.5S4.8,49.9,4.8,49.6z"/>
	<path fill="#FFFFFF" d="M10.1,51.9H9.5c-0.1,0-0.1,0-0.2-0.1c0,0-0.1-0.1-0.1-0.1l-0.3-0.9H7l-0.3,0.9c0,0,0,0.1-0.1,0.1
		c0,0-0.1,0.1-0.2,0.1H5.7l1.8-4.5h0.9L10.1,51.9z M7.2,50.2h1.4l-0.5-1.5c0-0.1-0.1-0.1-0.1-0.2c0-0.1-0.1-0.2-0.1-0.3
		c0,0.1-0.1,0.2-0.1,0.3c0,0.1-0.1,0.2-0.1,0.2L7.2,50.2z"/>
	<path fill="#FFFFFF" d="M11.5,50.3v1.6h-0.8v-4.5h1.5c0.3,0,0.6,0,0.8,0.1c0.2,0.1,0.4,0.2,0.5,0.3c0.1,0.1,0.2,0.3,0.3,0.5
		c0.1,0.2,0.1,0.4,0.1,0.6c0,0.2,0,0.4-0.1,0.6s-0.2,0.3-0.3,0.5s-0.3,0.2-0.5,0.3c-0.2,0.1-0.5,0.1-0.8,0.1H11.5z M11.5,49.7h0.6
		c0.2,0,0.3,0,0.4-0.1c0.1,0,0.2-0.1,0.3-0.2c0.1-0.1,0.1-0.2,0.2-0.3c0-0.1,0.1-0.2,0.1-0.3c0-0.1,0-0.2-0.1-0.3
		c0-0.1-0.1-0.2-0.2-0.2s-0.2-0.1-0.3-0.2S12.3,48,12.1,48h-0.6V49.7z"/>
	<path fill="#FFFFFF" d="M14.5,51.9v-4.5h1.6c0.3,0,0.5,0,0.8,0.1c0.2,0.1,0.4,0.1,0.5,0.2c0.1,0.1,0.2,0.2,0.3,0.4
		c0.1,0.1,0.1,0.3,0.1,0.5c0,0.1,0,0.2,0,0.3c0,0.1-0.1,0.2-0.1,0.3s-0.1,0.2-0.2,0.2c-0.1,0.1-0.2,0.1-0.4,0.2
		c0.6,0.1,0.9,0.5,0.9,1c0,0.2,0,0.4-0.1,0.5s-0.2,0.3-0.3,0.4c-0.1,0.1-0.3,0.2-0.5,0.3s-0.4,0.1-0.7,0.1H14.5z M15.3,49.3H16
		c0.3,0,0.5-0.1,0.6-0.2c0.1-0.1,0.2-0.3,0.2-0.5c0-0.2-0.1-0.4-0.2-0.5c-0.1-0.1-0.3-0.1-0.6-0.1h-0.7V49.3z M15.3,49.9v1.3h0.9
		c0.2,0,0.3,0,0.4-0.1c0.1,0,0.2-0.1,0.3-0.1s0.1-0.1,0.1-0.2c0-0.1,0-0.2,0-0.3c0-0.1,0-0.2,0-0.3c0-0.1-0.1-0.1-0.1-0.2
		C16.8,50,16.7,50,16.6,50c-0.1,0-0.2,0-0.4,0H15.3z"/>
	<path fill="#FFFFFF" d="M22.9,49.6c0,0.3-0.1,0.6-0.2,0.9c-0.1,0.3-0.3,0.5-0.5,0.7c-0.2,0.2-0.4,0.4-0.7,0.5
		c-0.3,0.1-0.6,0.2-0.9,0.2s-0.7-0.1-0.9-0.2c-0.3-0.1-0.5-0.3-0.7-0.5c-0.2-0.2-0.4-0.4-0.5-0.7c-0.1-0.3-0.2-0.6-0.2-0.9
		s0.1-0.6,0.2-0.9s0.3-0.5,0.5-0.7c0.2-0.2,0.4-0.4,0.7-0.5c0.3-0.1,0.6-0.2,0.9-0.2s0.7,0.1,0.9,0.2c0.3,0.1,0.5,0.3,0.7,0.5
		c0.2,0.2,0.4,0.4,0.5,0.7C22.8,49,22.9,49.3,22.9,49.6z M22,49.6c0-0.2,0-0.5-0.1-0.7c-0.1-0.2-0.2-0.4-0.3-0.5
		c-0.1-0.1-0.3-0.2-0.4-0.3c-0.2-0.1-0.4-0.1-0.6-0.1s-0.4,0-0.6,0.1c-0.2,0.1-0.3,0.2-0.5,0.3c-0.1,0.1-0.2,0.3-0.3,0.5
		c-0.1,0.2-0.1,0.4-0.1,0.7s0,0.5,0.1,0.7c0.1,0.2,0.2,0.4,0.3,0.5c0.1,0.1,0.3,0.2,0.5,0.3c0.2,0.1,0.4,0.1,0.6,0.1s0.4,0,0.6-0.1
		c0.2-0.1,0.3-0.2,0.4-0.3c0.1-0.1,0.2-0.3,0.3-0.5S22,49.9,22,49.6z"/>
	<path fill="#FFFFFF" d="M24.5,49.6l-1.4-2.2h0.8c0.1,0,0.1,0,0.1,0s0,0,0.1,0.1l1,1.7c0,0,0-0.1,0-0.1c0,0,0-0.1,0-0.1l0.9-1.5
		c0-0.1,0.1-0.1,0.2-0.1h0.8l-1.5,2.2l1.5,2.4h-0.8c-0.1,0-0.1,0-0.1,0c0,0-0.1-0.1-0.1-0.1l-1-1.7c0,0,0,0,0,0.1c0,0,0,0,0,0.1
		l-1,1.6c0,0-0.1,0.1-0.1,0.1s-0.1,0-0.1,0H23L24.5,49.6z"/>
	<path fill="#FFFFFF" d="M32.9,49.6c0,0.3-0.1,0.6-0.2,0.9c-0.1,0.3-0.3,0.5-0.5,0.7c-0.2,0.2-0.4,0.4-0.7,0.5
		c-0.3,0.1-0.6,0.2-0.9,0.2h-1.7v-4.5h1.7c0.3,0,0.7,0.1,0.9,0.2c0.3,0.1,0.5,0.3,0.7,0.5c0.2,0.2,0.4,0.4,0.5,0.7
		C32.8,49,32.9,49.3,32.9,49.6z M32,49.6c0-0.2,0-0.5-0.1-0.7c-0.1-0.2-0.2-0.4-0.3-0.5c-0.1-0.1-0.3-0.2-0.4-0.3
		c-0.2-0.1-0.4-0.1-0.6-0.1h-0.9v3.2h0.9c0.2,0,0.4,0,0.6-0.1c0.2-0.1,0.3-0.2,0.4-0.3c0.1-0.1,0.2-0.3,0.3-0.5
		C32,50.1,32,49.9,32,49.6z"/>
	<path fill="#FFFFFF" d="M36.4,47.4v0.7h-2v1.2H36V50h-1.6v1.3h2v0.7h-2.8v-4.5H36.4z"/>
	<path fill="#FFFFFF" d="M39.5,48.2C39.5,48.3,39.5,48.3,39.5,48.2c-0.1,0.1-0.1,0.1-0.2,0.1c0,0-0.1,0-0.1,0s-0.1-0.1-0.2-0.1
		c-0.1,0-0.2-0.1-0.2-0.1s-0.2,0-0.3,0c-0.1,0-0.2,0-0.3,0c-0.1,0-0.2,0.1-0.2,0.1s-0.1,0.1-0.1,0.2c0,0.1,0,0.1,0,0.2
		c0,0.1,0,0.2,0.1,0.3c0.1,0.1,0.1,0.1,0.2,0.2s0.2,0.1,0.3,0.1c0.1,0,0.3,0.1,0.4,0.1s0.3,0.1,0.4,0.2c0.1,0.1,0.2,0.1,0.3,0.2
		c0.1,0.1,0.2,0.2,0.2,0.3c0.1,0.1,0.1,0.3,0.1,0.5c0,0.2,0,0.4-0.1,0.6s-0.2,0.3-0.3,0.5c-0.1,0.1-0.3,0.2-0.5,0.3
		c-0.2,0.1-0.4,0.1-0.7,0.1c-0.1,0-0.3,0-0.4,0c-0.1,0-0.3-0.1-0.4-0.1s-0.2-0.1-0.4-0.2c-0.1-0.1-0.2-0.2-0.3-0.2L37,51
		c0,0,0.1-0.1,0.1-0.1s0.1,0,0.1,0c0.1,0,0.1,0,0.2,0.1c0.1,0,0.1,0.1,0.2,0.1s0.2,0.1,0.3,0.1c0.1,0,0.2,0.1,0.4,0.1
		c0.2,0,0.4-0.1,0.6-0.2s0.2-0.3,0.2-0.5c0-0.1,0-0.2-0.1-0.3c-0.1-0.1-0.1-0.1-0.2-0.2S38.5,50,38.4,50c-0.1,0-0.3-0.1-0.4-0.1
		c-0.1,0-0.3-0.1-0.4-0.2c-0.1-0.1-0.2-0.1-0.3-0.2c-0.1-0.1-0.2-0.2-0.2-0.4C37,49,37,48.8,37,48.6c0-0.2,0-0.3,0.1-0.5
		c0.1-0.2,0.2-0.3,0.3-0.4c0.1-0.1,0.3-0.2,0.5-0.3c0.2-0.1,0.4-0.1,0.6-0.1c0.3,0,0.5,0,0.7,0.1c0.2,0.1,0.4,0.2,0.6,0.3L39.5,48.2
		z"/>
	<path fill="#FFFFFF" d="M41.4,51.9h-0.8v-4.5h0.8V51.9z"/>
	<path fill="#FFFFFF" d="M44.5,51.3c0.2,0,0.4,0,0.5-0.1c0.1,0,0.3-0.1,0.4-0.1v-0.8h-0.6c-0.1,0-0.1,0-0.1,0s0-0.1,0-0.1v-0.5h1.5
		v1.8c-0.1,0.1-0.2,0.2-0.4,0.2c-0.1,0.1-0.3,0.1-0.4,0.2c-0.1,0-0.3,0.1-0.5,0.1c-0.2,0-0.3,0-0.5,0c-0.3,0-0.6-0.1-0.9-0.2
		c-0.3-0.1-0.5-0.3-0.7-0.5c-0.2-0.2-0.4-0.4-0.5-0.7c-0.1-0.3-0.2-0.6-0.2-0.9c0-0.3,0.1-0.6,0.2-0.9c0.1-0.3,0.3-0.5,0.5-0.7
		c0.2-0.2,0.4-0.4,0.7-0.5c0.3-0.1,0.6-0.2,1-0.2c0.4,0,0.7,0.1,1,0.2c0.3,0.1,0.5,0.3,0.7,0.4l-0.2,0.4c0,0.1-0.1,0.1-0.2,0.1
		c-0.1,0-0.1,0-0.2,0c-0.1,0-0.1-0.1-0.2-0.1c-0.1,0-0.1-0.1-0.2-0.1s-0.2-0.1-0.3-0.1c-0.1,0-0.2,0-0.4,0c-0.2,0-0.4,0-0.6,0.1
		s-0.3,0.2-0.5,0.3c-0.1,0.1-0.2,0.3-0.3,0.5S43,49.4,43,49.6c0,0.3,0,0.5,0.1,0.7c0.1,0.2,0.2,0.4,0.3,0.5c0.1,0.1,0.3,0.2,0.5,0.3
		C44.1,51.2,44.3,51.3,44.5,51.3z"/>
	<path fill="#FFFFFF" d="M47.5,47.4C47.5,47.4,47.5,47.4,47.5,47.4c0.1,0,0.1,0,0.1,0.1s0,0,0.1,0.1l2.4,3c0-0.1,0-0.1,0-0.2
		c0-0.1,0-0.1,0-0.2v-2.7h0.7v4.5h-0.4c-0.1,0-0.1,0-0.2,0c0,0-0.1-0.1-0.1-0.1l-2.4-3c0,0.1,0,0.1,0,0.2c0,0.1,0,0.1,0,0.2v2.8
		h-0.7v-4.5L47.5,47.4C47.4,47.4,47.4,47.4,47.5,47.4z"/>
	<path fill="#FFFFFF" d="M54.5,47.3c0.2,0,0.3,0,0.5,0.1c0.1,0.1,0.3,0.1,0.4,0.2c0.1,0.1,0.2,0.2,0.2,0.3c0.1,0.1,0.1,0.2,0.1,0.4
		l-0.5,0.1c0,0,0,0,0,0c0,0,0,0,0,0c0,0-0.1,0-0.1,0s0,0-0.1-0.1c0-0.1,0-0.1-0.1-0.2s-0.1-0.1-0.1-0.1c0,0-0.1-0.1-0.1-0.1
		c-0.1,0-0.1,0-0.2,0c-0.1,0-0.2,0-0.2,0c-0.1,0-0.1,0.1-0.2,0.1s-0.1,0.1-0.1,0.2c0,0.1,0,0.1,0,0.2c0,0.1,0,0.1,0,0.2
		c0,0.1,0,0.1,0.1,0.2c0,0.1,0.1,0.1,0.1,0.2s0.1,0.1,0.2,0.2l1.2,1.2c0.1-0.1,0.1-0.3,0.2-0.4c0-0.1,0.1-0.3,0.1-0.4
		c0,0,0-0.1,0-0.1c0,0,0.1,0,0.1,0h0.5c0,0.3,0,0.5-0.1,0.8c-0.1,0.2-0.2,0.5-0.3,0.7l0.9,1h-0.8c0,0-0.1,0-0.1,0c0,0-0.1,0-0.1,0
		c0,0-0.1,0-0.1,0c0,0-0.1,0-0.1-0.1l-0.3-0.3c-0.2,0.2-0.4,0.3-0.7,0.4C54.5,51.9,54.3,52,54,52c-0.2,0-0.3,0-0.5-0.1
		s-0.3-0.1-0.4-0.3c-0.1-0.1-0.2-0.2-0.3-0.4s-0.1-0.3-0.1-0.5c0-0.1,0-0.3,0.1-0.4c0-0.1,0.1-0.2,0.2-0.4c0.1-0.1,0.2-0.2,0.3-0.3
		c0.1-0.1,0.2-0.2,0.4-0.2c-0.1-0.2-0.2-0.3-0.2-0.5c-0.1-0.1-0.1-0.3-0.1-0.4c0-0.2,0-0.3,0.1-0.4s0.1-0.3,0.2-0.4
		c0.1-0.1,0.2-0.2,0.4-0.2C54.1,47.4,54.3,47.3,54.5,47.3z M53.4,50.6c0,0.1,0,0.2,0.1,0.3c0,0.1,0.1,0.2,0.2,0.2
		c0.1,0.1,0.1,0.1,0.2,0.1c0.1,0,0.2,0.1,0.3,0.1c0.2,0,0.3,0,0.5-0.1c0.2-0.1,0.3-0.1,0.4-0.2l-1.2-1.2c-0.2,0.1-0.3,0.2-0.4,0.4
		C53.4,50.3,53.4,50.4,53.4,50.6z"/>
	<path fill="#FFFFFF" d="M59.4,50.3v1.6h-0.8v-4.5H60c0.3,0,0.6,0,0.8,0.1c0.2,0.1,0.4,0.2,0.5,0.3s0.2,0.3,0.3,0.5
		c0.1,0.2,0.1,0.4,0.1,0.6c0,0.2,0,0.4-0.1,0.6c-0.1,0.2-0.2,0.3-0.3,0.5s-0.3,0.2-0.5,0.3c-0.2,0.1-0.5,0.1-0.8,0.1H59.4z
		 M59.4,49.7H60c0.2,0,0.3,0,0.4-0.1c0.1,0,0.2-0.1,0.3-0.2c0.1-0.1,0.1-0.2,0.2-0.3c0-0.1,0.1-0.2,0.1-0.3c0-0.1,0-0.2-0.1-0.3
		c0-0.1-0.1-0.2-0.2-0.2c-0.1-0.1-0.2-0.1-0.3-0.2S60.2,48,60,48h-0.6V49.7z"/>
	<path fill="#FFFFFF" d="M63.3,50.1v1.8h-0.8v-4.5h1.4c0.3,0,0.6,0,0.8,0.1c0.2,0.1,0.4,0.2,0.5,0.3c0.1,0.1,0.2,0.3,0.3,0.4
		s0.1,0.3,0.1,0.5c0,0.2,0,0.3-0.1,0.4c0,0.1-0.1,0.3-0.2,0.4c-0.1,0.1-0.2,0.2-0.3,0.3c-0.1,0.1-0.3,0.1-0.4,0.2
		c0.1,0.1,0.2,0.1,0.3,0.3l1.1,1.7h-0.8c-0.1,0-0.1,0-0.2,0c-0.1,0-0.1-0.1-0.1-0.1l-0.9-1.4c0-0.1-0.1-0.1-0.1-0.1c0,0-0.1,0-0.2,0
		H63.3z M63.3,49.5h0.5c0.2,0,0.3,0,0.4-0.1c0.1,0,0.2-0.1,0.3-0.2c0.1-0.1,0.1-0.2,0.2-0.2c0-0.1,0.1-0.2,0.1-0.3
		c0-0.2-0.1-0.4-0.2-0.5c-0.2-0.1-0.4-0.2-0.7-0.2h-0.5V49.5z"/>
	<path fill="#FFFFFF" d="M67.4,51.9h-0.8v-4.5h0.8V51.9z"/>
	<path fill="#FFFFFF" d="M69,47.4C69,47.4,69,47.4,69,47.4c0.1,0,0.1,0,0.1,0.1c0,0,0,0,0.1,0.1l2.4,3c0-0.1,0-0.1,0-0.2
		c0-0.1,0-0.1,0-0.2v-2.7h0.7v4.5h-0.4c-0.1,0-0.1,0-0.2,0c0,0-0.1-0.1-0.1-0.1l-2.4-3c0,0.1,0,0.1,0,0.2s0,0.1,0,0.2v2.8h-0.7v-4.5
		L69,47.4C68.9,47.4,69,47.4,69,47.4z"/>
	<path fill="#FFFFFF" d="M76.3,47.4v0.7H75v3.8h-0.8v-3.8h-1.4v-0.7H76.3z"/>
	<path fill="#FFFFFF" d="M12.1,58.8c0.2,0,0.4,0,0.5-0.1s0.3-0.1,0.4-0.1v-0.8h-0.6c-0.1,0-0.1,0-0.1,0s0-0.1,0-0.1v-0.5h1.5v1.8
		c-0.1,0.1-0.2,0.2-0.4,0.2s-0.3,0.1-0.4,0.2c-0.1,0-0.3,0.1-0.5,0.1c-0.2,0-0.3,0-0.5,0c-0.3,0-0.6-0.1-0.9-0.2
		c-0.3-0.1-0.5-0.3-0.7-0.5c-0.2-0.2-0.4-0.4-0.5-0.7c-0.1-0.3-0.2-0.6-0.2-0.9c0-0.3,0.1-0.6,0.2-0.9c0.1-0.3,0.3-0.5,0.5-0.7
		c0.2-0.2,0.4-0.4,0.7-0.5c0.3-0.1,0.6-0.2,1-0.2c0.4,0,0.7,0.1,1,0.2c0.3,0.1,0.5,0.3,0.7,0.4l-0.2,0.4c0,0.1-0.1,0.1-0.2,0.1
		c-0.1,0-0.1,0-0.2,0c-0.1,0-0.1-0.1-0.2-0.1c-0.1,0-0.1-0.1-0.2-0.1s-0.2-0.1-0.3-0.1s-0.2,0-0.4,0c-0.2,0-0.4,0-0.6,0.1
		s-0.3,0.2-0.5,0.3c-0.1,0.1-0.2,0.3-0.3,0.5c-0.1,0.2-0.1,0.4-0.1,0.7c0,0.3,0,0.5,0.1,0.7c0.1,0.2,0.2,0.4,0.3,0.5
		c0.1,0.1,0.3,0.2,0.5,0.3C11.7,58.7,11.9,58.8,12.1,58.8z"/>
	<path fill="#FFFFFF" d="M15.4,58.7h1.8v0.7h-2.6v-4.5h0.8V58.7z"/>
	<path fill="#FFFFFF" d="M21.8,59.4h-0.6c-0.1,0-0.1,0-0.2-0.1c0,0-0.1-0.1-0.1-0.1l-0.3-0.9h-1.9l-0.3,0.9c0,0,0,0.1-0.1,0.1
		c0,0-0.1,0.1-0.2,0.1h-0.7l1.8-4.5H20L21.8,59.4z M18.8,57.7h1.4l-0.5-1.5c0-0.1-0.1-0.1-0.1-0.2c0-0.1-0.1-0.2-0.1-0.3
		c0,0.1-0.1,0.2-0.1,0.3c0,0.1-0.1,0.2-0.1,0.2L18.8,57.7z"/>
	<path fill="#FFFFFF" d="M24.6,55.7C24.6,55.7,24.6,55.8,24.6,55.7c-0.1,0.1-0.1,0.1-0.2,0.1s-0.1,0-0.1,0c-0.1,0-0.1-0.1-0.2-0.1
		c-0.1,0-0.2-0.1-0.2-0.1c-0.1,0-0.2,0-0.3,0c-0.1,0-0.2,0-0.3,0c-0.1,0-0.2,0.1-0.2,0.1c-0.1,0-0.1,0.1-0.1,0.2c0,0.1,0,0.1,0,0.2
		c0,0.1,0,0.2,0.1,0.3c0.1,0.1,0.1,0.1,0.2,0.2s0.2,0.1,0.3,0.1c0.1,0,0.3,0.1,0.4,0.1s0.3,0.1,0.4,0.2c0.1,0.1,0.2,0.1,0.3,0.2
		c0.1,0.1,0.2,0.2,0.2,0.3c0.1,0.1,0.1,0.3,0.1,0.5c0,0.2,0,0.4-0.1,0.6c-0.1,0.2-0.2,0.3-0.3,0.5c-0.1,0.1-0.3,0.2-0.5,0.3
		c-0.2,0.1-0.4,0.1-0.7,0.1c-0.1,0-0.3,0-0.4,0s-0.3-0.1-0.4-0.1c-0.1-0.1-0.2-0.1-0.4-0.2c-0.1-0.1-0.2-0.2-0.3-0.2l0.2-0.4
		c0,0,0.1-0.1,0.1-0.1s0.1,0,0.1,0c0.1,0,0.1,0,0.2,0.1s0.1,0.1,0.2,0.1s0.2,0.1,0.3,0.1c0.1,0,0.2,0.1,0.4,0.1
		c0.2,0,0.4-0.1,0.6-0.2s0.2-0.3,0.2-0.5c0-0.1,0-0.2-0.1-0.3c-0.1-0.1-0.1-0.1-0.2-0.2s-0.2-0.1-0.3-0.1s-0.3-0.1-0.4-0.1
		c-0.1,0-0.3-0.1-0.4-0.2c-0.1-0.1-0.2-0.1-0.3-0.2c-0.1-0.1-0.2-0.2-0.2-0.4c-0.1-0.1-0.1-0.3-0.1-0.5c0-0.2,0-0.3,0.1-0.5
		c0.1-0.2,0.2-0.3,0.3-0.4c0.1-0.1,0.3-0.2,0.5-0.3c0.2-0.1,0.4-0.1,0.6-0.1c0.3,0,0.5,0,0.7,0.1c0.2,0.1,0.4,0.2,0.6,0.3L24.6,55.7
		z"/>
	<path fill="#FFFFFF" d="M27.6,58.8c0.2,0,0.4,0,0.5-0.1s0.3-0.1,0.4-0.1v-0.8H28c-0.1,0-0.1,0-0.1,0s0-0.1,0-0.1v-0.5h1.5v1.8
		c-0.1,0.1-0.2,0.2-0.4,0.2s-0.3,0.1-0.4,0.2c-0.1,0-0.3,0.1-0.5,0.1c-0.2,0-0.3,0-0.5,0c-0.3,0-0.6-0.1-0.9-0.2
		c-0.3-0.1-0.5-0.3-0.7-0.5c-0.2-0.2-0.4-0.4-0.5-0.7c-0.1-0.3-0.2-0.6-0.2-0.9c0-0.3,0.1-0.6,0.2-0.9c0.1-0.3,0.3-0.5,0.5-0.7
		c0.2-0.2,0.4-0.4,0.7-0.5c0.3-0.1,0.6-0.2,1-0.2c0.4,0,0.7,0.1,1,0.2c0.3,0.1,0.5,0.3,0.7,0.4L29,55.8c0,0.1-0.1,0.1-0.2,0.1
		c-0.1,0-0.1,0-0.2,0c-0.1,0-0.1-0.1-0.2-0.1c-0.1,0-0.1-0.1-0.2-0.1s-0.2-0.1-0.3-0.1s-0.2,0-0.4,0c-0.2,0-0.4,0-0.6,0.1
		s-0.3,0.2-0.5,0.3c-0.1,0.1-0.2,0.3-0.3,0.5c-0.1,0.2-0.1,0.4-0.1,0.7c0,0.3,0,0.5,0.1,0.7c0.1,0.2,0.2,0.4,0.3,0.5
		c0.1,0.1,0.3,0.2,0.5,0.3C27.2,58.7,27.4,58.8,27.6,58.8z"/>
	<path fill="#FFFFFF" d="M34.4,57.1c0,0.3-0.1,0.6-0.2,0.9c-0.1,0.3-0.3,0.5-0.5,0.7c-0.2,0.2-0.4,0.4-0.7,0.5
		c-0.3,0.1-0.6,0.2-0.9,0.2s-0.7-0.1-0.9-0.2c-0.3-0.1-0.5-0.3-0.7-0.5c-0.2-0.2-0.4-0.4-0.5-0.7c-0.1-0.3-0.2-0.6-0.2-0.9
		s0.1-0.6,0.2-0.9s0.3-0.5,0.5-0.7c0.2-0.2,0.4-0.4,0.7-0.5c0.3-0.1,0.6-0.2,0.9-0.2s0.7,0.1,0.9,0.2c0.3,0.1,0.5,0.3,0.7,0.5
		c0.2,0.2,0.4,0.4,0.5,0.7C34.3,56.5,34.4,56.8,34.4,57.1z M33.5,57.1c0-0.2,0-0.5-0.1-0.7c-0.1-0.2-0.2-0.4-0.3-0.5
		c-0.1-0.1-0.3-0.2-0.4-0.3c-0.2-0.1-0.4-0.1-0.6-0.1s-0.4,0-0.6,0.1c-0.2,0.1-0.3,0.2-0.5,0.3c-0.1,0.1-0.2,0.3-0.3,0.5
		c-0.1,0.2-0.1,0.4-0.1,0.7s0,0.5,0.1,0.7c0.1,0.2,0.2,0.4,0.3,0.5c0.1,0.1,0.3,0.2,0.5,0.3c0.2,0.1,0.4,0.1,0.6,0.1s0.4,0,0.6-0.1
		c0.2-0.1,0.3-0.2,0.4-0.3c0.1-0.1,0.2-0.3,0.3-0.5S33.5,57.4,33.5,57.1z"/>
	<path fill="#FFFFFF" d="M34.6,54.9h0.7c0.1,0,0.1,0,0.2,0.1s0.1,0.1,0.1,0.1l0.8,2.7c0,0.1,0,0.1,0.1,0.2s0,0.2,0,0.2
		c0-0.1,0-0.2,0.1-0.2s0-0.2,0.1-0.2l0.9-2.7c0,0,0-0.1,0.1-0.1c0,0,0.1-0.1,0.2-0.1H38c0.1,0,0.1,0,0.2,0.1s0.1,0.1,0.1,0.1
		l0.9,2.7c0,0.1,0.1,0.3,0.1,0.4c0-0.1,0-0.2,0-0.2s0-0.1,0-0.2l0.8-2.7c0-0.1,0-0.1,0.1-0.1c0,0,0.1-0.1,0.2-0.1h0.7l-1.4,4.5h-0.8
		l-1-3.1c0,0,0-0.1,0-0.1c0,0,0-0.1,0-0.1c0,0.1,0,0.1,0,0.1c0,0,0,0.1,0,0.1l-1,3.1H36L34.6,54.9z"/>
	<path fill="#FFFFFF" d="M43.3,54.9C43.3,54.9,43.4,54.9,43.3,54.9c0.1,0,0.1,0,0.1,0.1s0,0,0.1,0.1l2.4,3c0-0.1,0-0.1,0-0.2
		c0-0.1,0-0.1,0-0.2v-2.7h0.7v4.5h-0.4c-0.1,0-0.1,0-0.2,0c0,0-0.1-0.1-0.1-0.1l-2.4-3c0,0.1,0,0.1,0,0.2c0,0.1,0,0.1,0,0.2v2.8
		h-0.7v-4.5L43.3,54.9C43.3,54.9,43.3,54.9,43.3,54.9z"/>
	<path fill="#FFFFFF" d="M51.8,57.1c0,0.3-0.1,0.6-0.2,0.9c-0.1,0.3-0.3,0.5-0.5,0.7c-0.2,0.2-0.4,0.4-0.7,0.5
		c-0.3,0.1-0.6,0.2-0.9,0.2s-0.7-0.1-0.9-0.2s-0.5-0.3-0.7-0.5c-0.2-0.2-0.4-0.4-0.5-0.7c-0.1-0.3-0.2-0.6-0.2-0.9s0.1-0.6,0.2-0.9
		s0.3-0.5,0.5-0.7c0.2-0.2,0.4-0.4,0.7-0.5s0.6-0.2,0.9-0.2s0.7,0.1,0.9,0.2c0.3,0.1,0.5,0.3,0.7,0.5s0.4,0.4,0.5,0.7
		C51.8,56.5,51.8,56.8,51.8,57.1z M51,57.1c0-0.2,0-0.5-0.1-0.7c-0.1-0.2-0.2-0.4-0.3-0.5c-0.1-0.1-0.3-0.2-0.4-0.3
		c-0.2-0.1-0.4-0.1-0.6-0.1c-0.2,0-0.4,0-0.6,0.1c-0.2,0.1-0.3,0.2-0.5,0.3c-0.1,0.1-0.2,0.3-0.3,0.5c-0.1,0.2-0.1,0.4-0.1,0.7
		s0,0.5,0.1,0.7s0.2,0.4,0.3,0.5c0.1,0.1,0.3,0.2,0.5,0.3c0.2,0.1,0.4,0.1,0.6,0.1c0.2,0,0.4,0,0.6-0.1c0.2-0.1,0.3-0.2,0.4-0.3
		c0.1-0.1,0.2-0.3,0.3-0.5S51,57.4,51,57.1z"/>
	<path fill="#FFFFFF" d="M53.3,57.6v1.8h-0.8v-4.5h1.4c0.3,0,0.6,0,0.8,0.1c0.2,0.1,0.4,0.2,0.5,0.3c0.1,0.1,0.2,0.3,0.3,0.4
		s0.1,0.3,0.1,0.5c0,0.2,0,0.3-0.1,0.4c0,0.1-0.1,0.3-0.2,0.4c-0.1,0.1-0.2,0.2-0.3,0.3s-0.3,0.1-0.4,0.2c0.1,0.1,0.2,0.1,0.3,0.3
		l1.1,1.7h-0.8c-0.1,0-0.1,0-0.2,0c-0.1,0-0.1-0.1-0.1-0.1L54,57.8c0-0.1-0.1-0.1-0.1-0.1c0,0-0.1,0-0.2,0H53.3z M53.3,57h0.5
		c0.2,0,0.3,0,0.4-0.1c0.1,0,0.2-0.1,0.3-0.2c0.1-0.1,0.1-0.2,0.2-0.2c0-0.1,0.1-0.2,0.1-0.3c0-0.2-0.1-0.4-0.2-0.5
		c-0.2-0.1-0.4-0.2-0.7-0.2h-0.5V57z"/>
	<path fill="#FFFFFF" d="M59.6,54.9v0.7h-1.4v3.8h-0.8v-3.8H56v-0.7H59.6z"/>
	<path fill="#FFFFFF" d="M63.9,59.4h-0.8v-2h-2.1v2h-0.8v-4.5h0.8v1.9h2.1v-1.9h0.8V59.4z"/>
</g>
</svg>
