<?xml version="1.0" encoding="UTF-8" standalone="no"?>
<!-- Generator: Adobe Illustrator 18.0.0, SVG Export Plug-In . SVG Version: 6.00 Build 0)  -->
<!DOCTYPE svg  PUBLIC '-//W3C//DTD SVG 1.1//EN'  'http://www.w3.org/Graphics/SVG/1.1/DTD/svg11.dtd'>
<svg id="Layer_1" xmlns="http://www.w3.org/2000/svg" xml:space="preserve" viewBox="0 0 74 62.6" version="1.1" y="0px" x="0px" xmlns:xlink="http://www.w3.org/1999/xlink" enable-background="new 0 0 74 62.6">
	<path d="m37 40.2c-1 0-1.7-0.8-1.7-1.7 0-1 0.8-1.7 1.7-1.7 1 0 1.7 0.8 1.7 1.7s-0.7 1.7-1.7 1.7m0-5.5c-2.1 0-3.8 1.7-3.8 3.8 0 2 1.7 4.6 2.9 5.9 0.4 0.5 0.9 1.1 0.9 1.1s0.5-0.6 1-1.1c1.2-1.2 2.8-3.6 2.8-5.8s-1.7-3.9-3.8-3.9" fill="#EAA00A"/>
	<rect y="61.7" x="21.3" height=".9" width="31.3" fill="#EAA00A"/>
	<g fill="#fff">
		<path d="m12.4 48.2v0c-0.1 0.1-0.1 0.1-0.2 0.1s-0.1 0-0.1 0c-0.1 0-0.1-0.1-0.2-0.1s-0.2-0.1-0.2-0.1h-0.3-0.3c-0.1 0-0.2 0.1-0.2 0.1-0.1 0-0.1 0.1-0.1 0.2v0.2c0 0.1 0 0.2 0.1 0.3l0.2 0.2s0.2 0.1 0.3 0.1c0.1 0 0.3 0.1 0.4 0.1s0.3 0.1 0.4 0.2c0.1 0.1 0.2 0.1 0.3 0.2s0.2 0.2 0.2 0.3c0.1 0.1 0.1 0.3 0.1 0.5s0 0.4-0.1 0.6-0.2 0.3-0.3 0.5c-0.1 0.1-0.3 0.2-0.5 0.3s-0.4 0.1-0.7 0.1h-0.4s-0.3-0.1-0.4-0.1c-0.1-0.1-0.2-0.1-0.4-0.2-0.1-0.1-0.2-0.2-0.3-0.2l0.2-0.5 0.1-0.1s0.1 0 0.1 0c0.1 0 0.1 0 0.2 0.1s0.1 0.1 0.2 0.1 0.2 0.1 0.3 0.1c0.1 0 0.2 0.1 0.4 0.1s0.4-0.1 0.6-0.2 0.2-0.3 0.2-0.5c0-0.1 0-0.2-0.1-0.3l-0.2-0.2s-0.3-0.1-0.4-0.1-0.3-0.1-0.4-0.1c-0.1 0-0.3-0.1-0.4-0.2s-0.2-0.1-0.3-0.2-0.2-0.2-0.2-0.4c-0.1-0.1-0.1-0.3-0.1-0.5s0-0.3 0.1-0.5 0.2-0.3 0.3-0.4 0.3-0.2 0.5-0.3 0.4-0.1 0.6-0.1c0.3 0 0.5 0 0.7 0.1l0.6 0.3-0.3 0.5z"/>
		<path d="m17.7 49.6c0 0.3-0.1 0.6-0.2 0.9s-0.3 0.5-0.5 0.7-0.4 0.4-0.7 0.5-0.6 0.2-0.9 0.2-0.7-0.1-0.9-0.2c-0.3-0.1-0.5-0.3-0.7-0.5s-0.4-0.4-0.5-0.7-0.2-0.6-0.2-0.9 0.1-0.6 0.2-0.9 0.3-0.5 0.5-0.7c0.2-0.2 0.4-0.4 0.7-0.5s0.6-0.2 0.9-0.2 0.7 0.1 0.9 0.2c0.3 0.1 0.5 0.3 0.7 0.5s0.4 0.4 0.5 0.7 0.2 0.6 0.2 0.9zm-0.9 0c0-0.2 0-0.5-0.1-0.7s-0.2-0.4-0.3-0.5-0.3-0.2-0.4-0.3c-0.2-0.1-0.4-0.1-0.6-0.1s-0.4 0-0.6 0.1c-0.2 0.1-0.3 0.2-0.5 0.3-0.1 0.1-0.2 0.3-0.3 0.5v0.7s0 0.5 0.1 0.7c0.1 0.2 0.2 0.4 0.3 0.5s0.3 0.2 0.5 0.3 0.4 0.1 0.6 0.1 0.4 0 0.6-0.1c0.2-0.1 0.3-0.2 0.4-0.3s0.2-0.3 0.3-0.5 0-0.4 0-0.7z"/>
		<path d="m22.2 51.9h-0.6c-0.1 0-0.1 0-0.2-0.1l-0.1-0.1-0.3-0.9h-2l-0.3 0.9s0 0.1-0.1 0.1c0 0-0.1 0.1-0.2 0.1h-0.7l1.8-4.5h0.9l1.8 4.5zm-3-1.7h1.4l-0.5-1.5c0-0.1-0.1-0.1-0.1-0.2s-0.1-0.2-0.1-0.3c0 0.1-0.1 0.2-0.1 0.3s-0.1 0.2-0.1 0.2l-0.5 1.5z"/>
		<path d="m23.5 50.3v1.6h-0.8v-4.5h1.5c0.3 0 0.6 0 0.8 0.1s0.4 0.2 0.5 0.3 0.2 0.3 0.3 0.5 0.1 0.4 0.1 0.6 0 0.4-0.1 0.6-0.2 0.3-0.3 0.5-0.3 0.2-0.5 0.3c-0.2 0.1-0.5 0.1-0.8 0.1h-0.7zm0-0.6h0.6c0.2 0 0.3 0 0.4-0.1 0.1 0 0.2-0.1 0.3-0.2s0.1-0.2 0.2-0.3c0-0.1 0.1-0.2 0.1-0.3s0-0.2-0.1-0.3c0-0.1-0.1-0.2-0.2-0.2s-0.2-0.1-0.3-0.2-0.2-0.1-0.4-0.1h-0.6v1.7z"/>
		<path d="m26.5 51.9v-4.5h1.6c0.3 0 0.5 0 0.8 0.1 0.2 0.1 0.4 0.1 0.5 0.2s0.2 0.2 0.3 0.4c0.1 0.1 0.1 0.3 0.1 0.5v0.3c0 0.1-0.1 0.2-0.1 0.3s-0.1 0.2-0.2 0.2c-0.1 0.1-0.2 0.1-0.4 0.2 0.6 0.1 0.9 0.5 0.9 1 0 0.2 0 0.4-0.1 0.5s-0.2 0.3-0.3 0.4c-0.1 0.1-0.3 0.2-0.5 0.3s-0.4 0.1-0.7 0.1h-1.9zm0.9-2.6h0.6c0.3 0 0.5-0.1 0.6-0.2s0.2-0.3 0.2-0.5-0.1-0.4-0.2-0.5-0.3-0.1-0.6-0.1h-0.7v1.3zm0 0.6v1.3h0.9c0.2 0 0.3 0 0.4-0.1 0.1 0 0.2-0.1 0.3-0.1s0.1-0.1 0.1-0.2v-0.3-0.3c0-0.1-0.1-0.1-0.1-0.2h-0.4-0.4-0.8z"/>
		<path d="m34.9 49.6c0 0.3-0.1 0.6-0.2 0.9s-0.3 0.5-0.5 0.7-0.4 0.4-0.7 0.5c-0.2 0.2-0.5 0.3-0.9 0.3s-0.7-0.1-0.9-0.2c-0.3-0.1-0.5-0.3-0.7-0.5s-0.4-0.4-0.5-0.7-0.2-0.6-0.2-0.9 0.1-0.6 0.2-0.9 0.3-0.5 0.5-0.7c0.2-0.2 0.4-0.4 0.7-0.5s0.6-0.2 0.9-0.2 0.7 0.1 0.9 0.2c0.3 0.1 0.5 0.3 0.7 0.5s0.4 0.4 0.5 0.7c0.2 0.2 0.2 0.5 0.2 0.8zm-0.9 0c0-0.2 0-0.5-0.1-0.7s-0.2-0.4-0.3-0.5-0.3-0.2-0.4-0.3c-0.2-0.1-0.4-0.1-0.6-0.1s-0.4 0-0.6 0.1c-0.2 0.1-0.3 0.2-0.5 0.3-0.1 0.1-0.2 0.3-0.3 0.5s-0.1 0.4-0.1 0.7 0 0.5 0.1 0.7c0.1 0.2 0.2 0.4 0.3 0.5s0.3 0.2 0.5 0.3 0.4 0.1 0.6 0.1 0.4 0 0.6-0.1c0.2-0.1 0.3-0.2 0.4-0.3s0.2-0.3 0.3-0.5 0.1-0.4 0.1-0.7z"/>
		<path d="m36.6 49.6l-1.4-2.2h0.8 0.1l0.1 0.1 1 1.7v-0.1-0.1l0.9-1.5c0-0.1 0.1-0.1 0.2-0.1h0.8l-1.5 2.2 1.5 2.4h-0.8-0.1l-0.1-0.1-1-1.7v0.1 0.1l-1 1.6-0.1 0.1s-0.1 0-0.1 0h-0.8l1.5-2.5z"/>
		<path d="m44.9 49.6c0 0.3-0.1 0.6-0.2 0.9s-0.3 0.5-0.5 0.7-0.4 0.4-0.7 0.5-0.6 0.2-0.9 0.2h-1.7v-4.5h1.7c0.3 0 0.7 0.1 0.9 0.2s0.5 0.3 0.7 0.5c0.2 0.2 0.4 0.4 0.5 0.7s0.2 0.5 0.2 0.8zm-0.8 0c0-0.2 0-0.5-0.1-0.7s-0.2-0.4-0.3-0.5-0.3-0.2-0.4-0.3c-0.2-0.1-0.4-0.1-0.6-0.1h-0.9v3.2h0.9c0.2 0 0.4 0 0.6-0.1s0.3-0.2 0.4-0.3 0.2-0.3 0.3-0.5 0.1-0.4 0.1-0.7z"/>
		<path d="m46.5 51.9h-0.8v-4.5h0.8v4.5z"/>
		<path d="m49.6 51.3c0.2 0 0.4 0 0.5-0.1 0.1 0 0.3-0.1 0.4-0.1v-0.8h-0.6-0.1s0-0.1 0-0.1v-0.5h1.5v1.8c-0.1 0.1-0.2 0.2-0.4 0.2-0.1 0.1-0.3 0.1-0.4 0.2-0.1 0-0.3 0.1-0.5 0.1h-0.5c-0.3 0-0.6-0.1-0.9-0.2s-0.5-0.3-0.7-0.5-0.4-0.4-0.5-0.7-0.2-0.6-0.2-0.9 0.1-0.6 0.2-0.9 0.3-0.5 0.5-0.7 0.4-0.4 0.7-0.5 0.6-0.2 1-0.2 0.7 0.1 1 0.2 0.5 0.3 0.7 0.4l-0.3 0.3c0 0.1-0.1 0.1-0.2 0.1h-0.2c-0.1 0-0.1-0.1-0.2-0.1s-0.1-0.1-0.2-0.1-0.2-0.1-0.3-0.1h-0.4c-0.2 0-0.4 0-0.6 0.1s-0.3 0.2-0.5 0.3c-0.1 0.1-0.2 0.3-0.3 0.5s-0.1 0.4-0.1 0.7 0 0.5 0.1 0.7 0.2 0.4 0.3 0.5 0.3 0.2 0.5 0.3c0.3 0 0.5 0.1 0.7 0.1z"/>
		<path d="m53 51.9h-0.8v-4.5h0.8v4.5z"/>
		<path d="m57.2 47.4v0.7h-1.4v3.8h-0.8v-3.8h-1.4v-0.7h3.6z"/>
		<path d="m61.2 51.9h-0.6c-0.1 0-0.1 0-0.2-0.1s-0.1-0.1-0.1-0.1l-0.3-0.9h-1.9l-0.3 0.9s0 0.1-0.1 0.1c0 0-0.1 0.1-0.2 0.1h-0.7l1.8-4.5h0.9l1.7 4.5zm-2.9-1.7h1.4l-0.5-1.5c0-0.1-0.1-0.1-0.1-0.2s-0.1-0.2-0.1-0.3c0 0.1-0.1 0.2-0.1 0.3s-0.1 0.2-0.1 0.2l-0.5 1.5z"/>
		<path d="m62.5 51.2h1.8v0.7h-2.6v-4.5h0.8v3.8z"/>
		<path d="m23.8 58.8c0.2 0 0.4 0 0.5-0.1s0.3-0.1 0.4-0.1v-0.8h-0.6-0.1s0-0.1 0-0.1v-0.5h1.5v1.8c-0.1 0.1-0.2 0.2-0.4 0.2s-0.3 0.1-0.4 0.2c-0.1 0-0.3 0.1-0.5 0.1h-0.5c-0.3 0-0.6-0.1-0.9-0.2s-0.5-0.3-0.7-0.5-0.4-0.4-0.5-0.7-0.2-0.6-0.2-0.9 0.1-0.6 0.2-0.9 0.3-0.5 0.5-0.7 0.4-0.4 0.7-0.5 0.6-0.2 1-0.2 0.7 0.1 1 0.2 0.5 0.3 0.7 0.4l-0.2 0.4c0 0.1-0.1 0.1-0.2 0.1h-0.2c-0.1 0-0.1-0.1-0.2-0.1s-0.1-0.1-0.2-0.1-0.2-0.1-0.3-0.1-0.2 0-0.4 0c-0.2 0-0.4 0-0.6 0.1s-0.3 0.2-0.5 0.3c-0.1 0.1-0.2 0.3-0.3 0.5s-0.1 0.4-0.1 0.7 0 0.5 0.1 0.7 0.2 0.4 0.3 0.5 0.3 0.2 0.5 0.3c0.2-0.1 0.4 0 0.6 0z"/>
		<path d="m27 58.7h1.8v0.7h-2.6v-4.5h0.8v3.8z"/>
		<path d="m33.4 59.4h-0.6c-0.1 0-0.1 0-0.2-0.1l-0.1-0.1-0.3-0.9h-1.9l-0.3 0.9s0 0.1-0.1 0.1c0 0-0.1 0.1-0.2 0.1h-0.7l1.8-4.5h0.9l1.7 4.5zm-2.9-1.7h1.4l-0.5-1.5c0-0.1-0.1-0.1-0.1-0.2s-0.1-0.2-0.1-0.3c0 0.1-0.1 0.2-0.1 0.3s-0.1 0.2-0.1 0.2l-0.5 1.5z"/>
		<path d="m36.3 55.7s-0.1 0.1 0 0c-0.1 0.1-0.1 0.1-0.2 0.1h-0.1c-0.1 0-0.1-0.1-0.2-0.1s-0.2-0.1-0.2-0.1h-0.3-0.3c-0.1 0-0.2 0.1-0.2 0.1-0.1 0-0.1 0.1-0.1 0.2v0.2c0 0.1 0 0.2 0.1 0.3l0.2 0.2s0.2 0.1 0.3 0.1c0.1 0 0.3 0.1 0.4 0.1s0.3 0.1 0.4 0.2c0.1 0.1 0.2 0.1 0.3 0.2s0.2 0.2 0.2 0.3c0.1 0.1 0.1 0.3 0.1 0.5s0 0.4-0.1 0.6-0.2 0.3-0.3 0.5c-0.1 0.1-0.3 0.2-0.5 0.3s-0.4 0.1-0.7 0.1h-0.4s-0.3-0.1-0.4-0.1c-0.1-0.1-0.2-0.1-0.4-0.2-0.1-0.1-0.2-0.2-0.3-0.2l0.2-0.4 0.1-0.1s0.1 0 0.1 0c0.1 0 0.1 0 0.2 0.1s0.1 0.1 0.2 0.1 0.2 0.1 0.3 0.1c0.1 0 0.2 0.1 0.4 0.1s0.4-0.1 0.6-0.2 0.2-0.3 0.2-0.5c0-0.1 0-0.2-0.1-0.3l-0.2-0.2s-0.2-0.1-0.3-0.1c-0.1 0-0.3-0.1-0.4-0.1s-0.3-0.1-0.4-0.2-0.2-0.1-0.3-0.2-0.2-0.2-0.2-0.4c-0.1-0.1-0.1-0.3-0.1-0.5s0-0.3 0.1-0.5 0.2-0.3 0.3-0.4 0.3-0.2 0.5-0.3 0.4-0.1 0.6-0.1c0.3 0 0.5 0 0.7 0.1s0.4 0.2 0.6 0.3l-0.4 0.4z"/>
		<path d="m39.3 58.8c0.2 0 0.4 0 0.5-0.1 0.1 0 0.3-0.1 0.4-0.1v-0.8h-0.6-0.1s0-0.1 0-0.1v-0.5h1.5v1.8c-0.1 0.1-0.2 0.2-0.4 0.2-0.1 0.1-0.3 0.1-0.4 0.2-0.1 0-0.3 0.1-0.5 0.1h-0.5c-0.3 0-0.6-0.1-0.9-0.2s-0.5-0.3-0.7-0.5-0.4-0.4-0.5-0.7-0.2-0.6-0.2-0.9 0.1-0.6 0.2-0.9 0.3-0.5 0.5-0.7 0.4-0.4 0.7-0.5 0.6-0.2 1-0.2 0.7 0.1 1 0.2 0.5 0.3 0.7 0.4l-0.2 0.4c0 0.1-0.1 0.1-0.2 0.1h-0.2c-0.1 0-0.1-0.1-0.2-0.1s-0.1-0.1-0.2-0.1-0.2-0.1-0.3-0.1h-0.4c-0.2 0-0.4 0-0.6 0.1s-0.3 0.2-0.5 0.3c-0.1 0.1-0.2 0.3-0.3 0.5s-0.1 0.4-0.1 0.7 0 0.5 0.1 0.7 0.2 0.4 0.3 0.5 0.3 0.2 0.5 0.3c0.2-0.1 0.4 0 0.6 0z"/>
		<path d="m46 57.1c0 0.3-0.1 0.6-0.2 0.9s-0.3 0.5-0.5 0.7-0.4 0.4-0.7 0.5-0.6 0.2-0.9 0.2-0.7-0.1-0.9-0.2c-0.3-0.1-0.5-0.3-0.7-0.5s-0.4-0.4-0.5-0.7-0.2-0.6-0.2-0.9 0.1-0.6 0.2-0.9 0.3-0.5 0.5-0.7c0.2-0.2 0.4-0.4 0.7-0.5s0.6-0.2 0.9-0.2 0.7 0.1 0.9 0.2 0.5 0.3 0.7 0.5c0.2 0.2 0.4 0.4 0.5 0.7s0.2 0.6 0.2 0.9zm-0.8 0c0-0.2 0-0.5-0.1-0.7s-0.2-0.4-0.3-0.5-0.3-0.2-0.4-0.3c-0.2-0.1-0.4-0.1-0.6-0.1s-0.4 0-0.6 0.1-0.3 0.2-0.5 0.3c-0.1 0.1-0.2 0.3-0.3 0.5s-0.1 0.4-0.1 0.7 0 0.5 0.1 0.7c0.1 0.2 0.2 0.4 0.3 0.5s0.3 0.2 0.5 0.3 0.4 0.1 0.6 0.1 0.4 0 0.6-0.1 0.3-0.2 0.4-0.3 0.2-0.3 0.3-0.5 0.1-0.4 0.1-0.7z"/>
		<path d="m46.3 54.9h0.7c0.1 0 0.1 0 0.2 0.1s0.1 0.1 0.1 0.1l0.8 2.7c0 0.1 0 0.1 0.1 0.2s0 0.2 0 0.2c0-0.1 0-0.2 0.1-0.2 0-0.1 0-0.2 0.1-0.2l0.9-2.7s0-0.1 0.1-0.1c0 0 0.1-0.1 0.2-0.1h0.2c0.1 0 0.1 0 0.2 0.1s0.1 0.1 0.1 0.1l0.9 2.7c0 0.1 0.1 0.3 0.1 0.4v-0.2s0-0.1 0-0.2l0.8-2.7c0-0.1 0-0.1 0.1-0.1 0 0 0.1-0.1 0.2-0.1h0.7l-1.4 4.5h-0.8l-1-3.1v-0.1-0.1 0.1 0.1l-1 3.1h-0.8l-1.6-4.5z"/>
	</g>
</svg>
