<?xml version="1.0" encoding="UTF-8" standalone="no"?>
<!-- Generator: Adobe Illustrator 14.0.0, SVG Export Plug-In . SVG Version: 6.00 Build 43363)  -->
<!DOCTYPE svg  PUBLIC '-//W3C//DTD SVG 1.1//EN'  'http://www.w3.org/Graphics/SVG/1.1/DTD/svg11.dtd'>
<svg id="Layer_1" xmlns="http://www.w3.org/2000/svg" xml:space="preserve" height="62.75px" viewBox="-23.75 -2.375 74 62.75" width="74px" version="1.1" y="0px" x="0px" xmlns:xlink="http://www.w3.org/1999/xlink" enable-background="new -23.75 -2.375 74 62.75">
<path d="m12.001 10.356c-1.985 0-3.596-1.621-3.596-3.621 0-2.001 1.611-3.622 3.596-3.622 1.984 0 3.595 1.621 3.595 3.622 0 2-1.611 3.621-3.595 3.621m0-11.606c-4.396 0-7.958 3.588-7.958 8.015 0 4.182 3.604 9.575 6.011 12.201 0.899 0.979 1.946 2.302 1.946 2.302s1.125-1.329 2.09-2.338c2.405-2.517 5.868-7.568 5.868-12.165-0.001-4.427-3.563-8.015-7.957-8.015" fill="#EAA00A"/>
<g fill="#fff">
	<path d="m-12.427 30.237c-0.047 0.096-0.103 0.162-0.166 0.201s-0.138 0.059-0.224 0.059c-0.087 0-0.185-0.033-0.292-0.101-0.108-0.067-0.236-0.142-0.384-0.225-0.147-0.082-0.319-0.156-0.517-0.224s-0.43-0.101-0.699-0.101c-0.243 0-0.454 0.029-0.634 0.087-0.18 0.059-0.332 0.141-0.455 0.244-0.124 0.104-0.216 0.229-0.276 0.374-0.061 0.145-0.091 0.305-0.091 0.478 0 0.221 0.062 0.405 0.185 0.553s0.287 0.272 0.491 0.377c0.204 0.104 0.436 0.197 0.696 0.279s0.525 0.17 0.796 0.264c0.271 0.093 0.536 0.201 0.796 0.324 0.26 0.124 0.492 0.28 0.696 0.469 0.204 0.188 0.367 0.419 0.491 0.691 0.124 0.273 0.185 0.604 0.185 0.995 0 0.425-0.073 0.822-0.218 1.192-0.145 0.371-0.357 0.693-0.637 0.969-0.28 0.275-0.621 0.492-1.024 0.65-0.403 0.157-0.865 0.236-1.385 0.236-0.299 0-0.594-0.028-0.884-0.087-0.291-0.059-0.569-0.143-0.835-0.251-0.266-0.107-0.516-0.238-0.747-0.39-0.232-0.151-0.439-0.32-0.621-0.507l0.507-0.839c0.047-0.061 0.105-0.111 0.172-0.152s0.142-0.062 0.225-0.062c0.108 0 0.225 0.044 0.351 0.133s0.274 0.188 0.445 0.296 0.373 0.207 0.604 0.296 0.51 0.133 0.835 0.133c0.498 0 0.884-0.118 1.157-0.354 0.273-0.235 0.41-0.575 0.41-1.017 0-0.247-0.062-0.449-0.185-0.604-0.124-0.156-0.287-0.287-0.491-0.394-0.204-0.106-0.436-0.196-0.696-0.27s-0.524-0.154-0.793-0.24c-0.269-0.087-0.533-0.191-0.793-0.312s-0.492-0.279-0.695-0.475c-0.204-0.194-0.367-0.438-0.491-0.731-0.124-0.292-0.186-0.653-0.186-1.082 0-0.342 0.068-0.676 0.205-1.001 0.136-0.325 0.335-0.613 0.598-0.864s0.584-0.453 0.965-0.604 0.817-0.228 1.307-0.228c0.555 0 1.066 0.087 1.534 0.26 0.468 0.174 0.866 0.416 1.196 0.729l-0.428 0.826z"/>
	<path d="m-1.474 33.228c0 0.688-0.115 1.327-0.344 1.914-0.23 0.587-0.553 1.095-0.969 1.524s-0.917 0.764-1.501 1.004-1.233 0.36-1.943 0.36c-0.711 0-1.36-0.12-1.947-0.36s-1.09-0.575-1.508-1.004c-0.418-0.43-0.742-0.938-0.972-1.524-0.229-0.587-0.344-1.226-0.344-1.914 0-0.689 0.115-1.327 0.344-1.914 0.23-0.588 0.554-1.096 0.972-1.524 0.418-0.43 0.92-0.764 1.508-1.005 0.587-0.24 1.236-0.36 1.947-0.36 0.71 0 1.358 0.121 1.943 0.364 0.585 0.242 1.085 0.577 1.501 1.004s0.739 0.934 0.969 1.521c0.229 0.586 0.344 1.224 0.344 1.914zm-1.794 0c0-0.516-0.068-0.979-0.205-1.388-0.137-0.41-0.333-0.758-0.588-1.044-0.256-0.285-0.566-0.505-0.933-0.656s-0.779-0.228-1.238-0.228c-0.459 0-0.873 0.076-1.242 0.228-0.368 0.151-0.681 0.371-0.939 0.656-0.258 0.286-0.456 0.634-0.595 1.044-0.139 0.409-0.208 0.872-0.208 1.388s0.069 0.978 0.208 1.388c0.139 0.409 0.337 0.756 0.595 1.04 0.258 0.283 0.571 0.501 0.939 0.653 0.369 0.151 0.782 0.228 1.242 0.228 0.459 0 0.872-0.076 1.238-0.228s0.677-0.37 0.933-0.653c0.256-0.284 0.452-0.631 0.588-1.04 0.137-0.411 0.205-0.873 0.205-1.388z"/>
	<path d="m7.834 37.927h-1.352c-0.152 0-0.277-0.038-0.375-0.113-0.096-0.076-0.168-0.171-0.211-0.283l-0.702-1.918h-3.892l-0.702 1.917c-0.035 0.1-0.103 0.19-0.205 0.273-0.102 0.082-0.227 0.123-0.374 0.123h-1.358l3.692-9.399h1.788l3.691 9.4zm-6.084-3.549h2.997l-1.144-3.127c-0.052-0.139-0.109-0.302-0.172-0.49s-0.125-0.394-0.185-0.614c-0.061 0.221-0.12 0.427-0.179 0.617s-0.116 0.357-0.172 0.501l-1.145 3.113z"/>
	<path d="m10.609 34.618v3.309h-1.748v-9.399h3.062c0.628 0 1.172 0.074 1.631 0.222 0.46 0.147 0.839 0.353 1.138 0.617s0.521 0.581 0.663 0.949 0.215 0.771 0.215 1.209c0 0.455-0.076 0.872-0.228 1.251s-0.38 0.705-0.683 0.979c-0.304 0.272-0.683 0.485-1.138 0.637s-0.988 0.228-1.599 0.228h-1.313zm0-1.365h1.313c0.32 0 0.6-0.04 0.838-0.12s0.436-0.194 0.592-0.345c0.156-0.149 0.273-0.331 0.351-0.546 0.078-0.214 0.117-0.453 0.117-0.718 0-0.251-0.039-0.479-0.117-0.683-0.077-0.204-0.194-0.377-0.351-0.521-0.156-0.143-0.354-0.252-0.592-0.328-0.238-0.075-0.518-0.113-0.838-0.113h-1.313v3.374z"/>
	<path d="m16.928 37.927v-9.399h3.243c0.615 0 1.141 0.059 1.576 0.176s0.793 0.284 1.072 0.501c0.28 0.217 0.484 0.479 0.614 0.786 0.131 0.308 0.195 0.654 0.195 1.04 0 0.221-0.032 0.433-0.098 0.634-0.064 0.201-0.165 0.39-0.302 0.565s-0.311 0.335-0.521 0.478c-0.21 0.144-0.46 0.265-0.75 0.364 1.291 0.29 1.937 0.988 1.937 2.093 0 0.399-0.076 0.768-0.228 1.105s-0.373 0.629-0.663 0.874-0.647 0.437-1.072 0.575-0.91 0.208-1.456 0.208h-3.547zm1.748-5.33h1.397c0.594 0 1.045-0.108 1.353-0.325s0.461-0.561 0.461-1.033c0-0.489-0.139-0.839-0.416-1.047s-0.71-0.312-1.3-0.312h-1.495v2.717zm0 1.209v2.756h1.774c0.325 0 0.598-0.039 0.816-0.117 0.219-0.077 0.394-0.182 0.526-0.312s0.228-0.281 0.286-0.455c0.059-0.173 0.088-0.357 0.088-0.553 0-0.203-0.033-0.387-0.098-0.549-0.065-0.163-0.167-0.302-0.306-0.416-0.139-0.115-0.316-0.203-0.533-0.264s-0.479-0.091-0.786-0.091h-1.767z"/>
	<path d="m34.413 33.228c0 0.688-0.115 1.327-0.345 1.914s-0.553 1.095-0.969 1.524c-0.416 0.429-0.916 0.764-1.501 1.004s-1.233 0.36-1.944 0.36c-0.71 0-1.359-0.12-1.946-0.36s-1.09-0.575-1.508-1.004c-0.418-0.43-0.742-0.938-0.972-1.524-0.23-0.587-0.345-1.226-0.345-1.914 0-0.689 0.114-1.327 0.345-1.914 0.229-0.588 0.554-1.096 0.972-1.524 0.418-0.43 0.921-0.764 1.508-1.005 0.587-0.24 1.236-0.36 1.946-0.36 0.711 0 1.359 0.121 1.944 0.364 0.585 0.242 1.085 0.577 1.501 1.004s0.739 0.934 0.969 1.521c0.23 0.586 0.345 1.224 0.345 1.914zm-1.794 0c0-0.516-0.068-0.979-0.205-1.388-0.137-0.41-0.333-0.758-0.588-1.044-0.256-0.285-0.567-0.505-0.934-0.656s-0.778-0.228-1.238-0.228c-0.459 0-0.873 0.076-1.241 0.228s-0.682 0.371-0.939 0.656c-0.258 0.286-0.456 0.634-0.595 1.044-0.139 0.409-0.208 0.872-0.208 1.388s0.069 0.978 0.208 1.388c0.139 0.409 0.337 0.756 0.595 1.04 0.258 0.283 0.571 0.501 0.939 0.653 0.368 0.151 0.782 0.228 1.241 0.228 0.46 0 0.872-0.076 1.238-0.228s0.678-0.37 0.934-0.653c0.255-0.284 0.451-0.631 0.588-1.04 0.137-0.411 0.205-0.873 0.205-1.388z"/>
	<path d="m37.851 33.091l-2.996-4.563h1.742c0.121 0 0.209 0.017 0.263 0.049 0.055 0.033 0.104 0.086 0.146 0.159l2.139 3.452c0.021-0.057 0.046-0.111 0.071-0.166 0.026-0.054 0.057-0.109 0.091-0.166l1.957-3.087c0.095-0.16 0.219-0.241 0.37-0.241h1.677l-3.028 4.492 3.113 4.907h-1.748c-0.117 0-0.212-0.03-0.283-0.091s-0.131-0.13-0.179-0.208l-2.178-3.602c-0.018 0.053-0.037 0.102-0.059 0.146-0.021 0.046-0.043 0.088-0.064 0.127l-2.087 3.328c-0.048 0.073-0.106 0.142-0.176 0.204-0.069 0.063-0.155 0.095-0.26 0.095h-1.638l3.127-4.835z"/>
	<path d="m-9.752 47.618v3.309h-1.748v-9.399h3.062c0.628 0 1.172 0.074 1.632 0.222 0.459 0.147 0.838 0.353 1.137 0.617 0.299 0.265 0.52 0.581 0.663 0.949s0.214 0.771 0.214 1.209c0 0.455-0.076 0.872-0.228 1.251-0.151 0.379-0.379 0.705-0.682 0.979-0.304 0.272-0.683 0.485-1.138 0.637s-0.988 0.228-1.599 0.228h-1.313zm0-1.365h1.313c0.321 0 0.6-0.04 0.839-0.12 0.238-0.08 0.435-0.194 0.591-0.345 0.156-0.149 0.273-0.331 0.351-0.546 0.078-0.214 0.117-0.453 0.117-0.718 0-0.251-0.039-0.479-0.117-0.683s-0.195-0.377-0.351-0.521c-0.156-0.143-0.353-0.252-0.591-0.328-0.239-0.075-0.518-0.113-0.839-0.113h-1.313v3.374z"/>
	<path d="m3.82 50.927h-1.352c-0.152 0-0.276-0.038-0.374-0.113-0.098-0.076-0.168-0.171-0.211-0.283l-0.702-1.918h-3.893l-0.702 1.918c-0.035 0.1-0.103 0.19-0.205 0.273-0.102 0.082-0.227 0.123-0.374 0.123h-1.358l3.692-9.399h1.788l3.691 9.399zm-6.084-3.549h2.997l-1.144-3.127c-0.052-0.139-0.109-0.302-0.172-0.49s-0.125-0.394-0.185-0.614c-0.061 0.221-0.12 0.427-0.179 0.617s-0.116 0.357-0.172 0.501l-1.145 3.113z"/>
	<path d="m6.759 50.927h-1.756v-9.399h1.755v9.399z"/>
	<path d="m13.907 43.237c-0.048 0.096-0.103 0.162-0.166 0.201-0.062 0.039-0.137 0.059-0.224 0.059s-0.185-0.033-0.293-0.101-0.236-0.142-0.383-0.225c-0.147-0.082-0.32-0.156-0.518-0.224s-0.43-0.101-0.698-0.101c-0.243 0-0.454 0.029-0.634 0.087-0.18 0.059-0.331 0.141-0.455 0.244-0.123 0.104-0.216 0.229-0.276 0.374-0.061 0.145-0.091 0.305-0.091 0.478 0 0.221 0.062 0.405 0.186 0.553 0.123 0.147 0.287 0.272 0.49 0.377 0.204 0.104 0.436 0.197 0.695 0.279 0.261 0.082 0.525 0.17 0.797 0.264 0.271 0.093 0.536 0.201 0.796 0.324 0.26 0.124 0.492 0.28 0.695 0.469 0.204 0.188 0.367 0.419 0.491 0.691 0.123 0.273 0.186 0.604 0.186 0.995 0 0.425-0.073 0.822-0.218 1.192-0.146 0.371-0.358 0.693-0.638 0.969s-0.62 0.492-1.023 0.65c-0.403 0.157-0.864 0.236-1.385 0.236-0.299 0-0.594-0.028-0.884-0.087s-0.568-0.143-0.835-0.251c-0.267-0.107-0.516-0.238-0.748-0.39-0.231-0.151-0.438-0.32-0.62-0.507l0.507-0.839c0.048-0.061 0.104-0.111 0.172-0.152s0.142-0.062 0.225-0.062c0.108 0 0.225 0.044 0.351 0.133s0.274 0.188 0.445 0.296 0.373 0.207 0.604 0.296 0.511 0.133 0.835 0.133c0.499 0 0.885-0.118 1.157-0.354 0.273-0.235 0.41-0.575 0.41-1.017 0-0.247-0.062-0.449-0.186-0.604-0.124-0.156-0.287-0.287-0.491-0.394-0.203-0.106-0.436-0.196-0.695-0.27-0.26-0.074-0.524-0.154-0.793-0.24-0.269-0.087-0.533-0.191-0.793-0.312s-0.492-0.279-0.695-0.475c-0.204-0.194-0.367-0.438-0.491-0.731-0.123-0.292-0.185-0.653-0.185-1.082 0-0.342 0.068-0.676 0.204-1.001 0.137-0.325 0.336-0.613 0.599-0.864 0.262-0.251 0.584-0.453 0.965-0.604 0.382-0.151 0.816-0.228 1.307-0.228 0.555 0 1.066 0.087 1.534 0.26 0.468 0.174 0.866 0.416 1.195 0.729l-0.428 0.826z"/>
	<path d="m17.593 49.483h3.764v1.443h-5.512v-9.399h1.748v7.956z"/>
	<path d="m28.493 41.527v1.392h-4.166v2.606h3.282v1.346h-3.282v2.658h4.166v1.397h-5.928v-9.399h5.928z"/>
	<path d="m34.188 47.273v3.653h-1.749v-3.653l-3.426-5.746h1.541c0.151 0 0.271 0.037 0.36 0.111 0.089 0.073 0.164 0.166 0.225 0.279l1.723 3.14c0.1 0.186 0.186 0.362 0.26 0.529 0.073 0.167 0.141 0.331 0.201 0.491 0.057-0.165 0.12-0.331 0.192-0.498 0.071-0.166 0.156-0.341 0.257-0.522l1.709-3.14c0.048-0.096 0.119-0.185 0.215-0.267 0.095-0.082 0.217-0.124 0.364-0.124h1.547l-3.419 5.747z"/>
</g>
<rect y="55.18" x="-18.179" height="1.88" width="61.575" fill="#EAA00A"/>
</svg>
