<?xml version="1.0" encoding="utf-8"?>
<!-- Generator: Adobe Illustrator 15.0.0, SVG Export Plug-In . SVG Version: 6.00 Build 0)  -->
<!DOCTYPE svg PUBLIC "-//W3C//DTD SVG 1.1//EN" "http://www.w3.org/Graphics/SVG/1.1/DTD/svg11.dtd">
<svg version="1.1" id="Layer_1" xmlns="http://www.w3.org/2000/svg" xmlns:xlink="http://www.w3.org/1999/xlink" x="0px" y="0px"
	 width="42px" height="42px" viewBox="0 0 42 42" enable-background="new 0 0 42 42" xml:space="preserve">
<g>
	<path fill="#252525" d="M14.517,19.388H8.871c-0.672,0-1.243-0.236-1.714-0.706c-0.47-0.471-0.705-1.042-0.705-1.714v-0.806
		c0-1.781,0.629-3.302,1.891-4.562c1.26-1.259,2.781-1.89,4.562-1.89h1.613c0.437,0,0.814-0.16,1.135-0.479
		c0.318-0.32,0.479-0.698,0.479-1.135V4.872c0-0.437-0.16-0.816-0.479-1.135c-0.321-0.318-0.698-0.479-1.135-0.479h-1.613
		c-1.748,0-3.415,0.34-5.002,1.021c-1.587,0.68-2.962,1.6-4.121,2.76c-1.16,1.159-2.08,2.533-2.759,4.121
		C0.34,12.747,0,14.414,0,16.162v17.743c0,1.344,0.47,2.486,1.411,3.428c0.941,0.939,2.084,1.408,3.429,1.408h9.677
		c1.345,0,2.486-0.469,3.427-1.408c0.941-0.941,1.412-2.084,1.412-3.428v-9.677c0-1.345-0.471-2.488-1.412-3.43
		C17.003,19.857,15.861,19.388,14.517,19.388L14.517,19.388z M14.517,19.388"/>
	<path fill="#252525" d="M40.525,20.798c-0.94-0.941-2.082-1.41-3.427-1.41h-5.646c-0.672,0-1.244-0.236-1.713-0.706
		c-0.472-0.471-0.706-1.042-0.706-1.714v-0.806c0-1.781,0.632-3.302,1.891-4.562c1.26-1.259,2.781-1.89,4.561-1.89h1.613
		c0.437,0,0.816-0.16,1.134-0.479c0.319-0.32,0.479-0.698,0.479-1.135V4.872c0-0.437-0.16-0.816-0.479-1.135
		c-0.317-0.318-0.697-0.479-1.134-0.479h-1.613c-1.746,0-3.414,0.34-5.002,1.021c-1.587,0.68-2.962,1.6-4.12,2.76
		c-1.16,1.159-2.079,2.533-2.76,4.121s-1.021,3.254-1.021,5.002v17.743c0,1.344,0.47,2.486,1.41,3.428
		c0.941,0.939,2.083,1.408,3.427,1.408h9.678c1.346,0,2.487-0.469,3.428-1.408c0.941-0.941,1.411-2.084,1.411-3.428v-9.677
		C41.936,22.883,41.466,21.74,40.525,20.798L40.525,20.798z M40.525,20.798"/>
</g>
</svg>
