<?xml version="1.0" encoding="UTF-8" standalone="no"?>
<!-- Generator: Adobe Illustrator 15.0.0, SVG Export Plug-In . SVG Version: 6.00 Build 0)  -->
<!DOCTYPE svg  PUBLIC '-//W3C//DTD SVG 1.1//EN'  'http://www.w3.org/Graphics/SVG/1.1/DTD/svg11.dtd'>
<svg id="Layer_1" xmlns="http://www.w3.org/2000/svg" xml:space="preserve" height="72px" viewBox="0 0 137 72" width="137px" version="1.1" y="0px" x="0px" xmlns:xlink="http://www.w3.org/1999/xlink" enable-background="new 0 0 137 72">
<path d="m8.729 43.542c2.6 0 4.269 0.187 7.055 1.001v4.941h-6.684c-0.371 0-0.929 0.037-0.929 0.367 0 0.264 0.223 0.301 0.704 0.377 2.861 0.438 7.653 1.115 7.653 6.31 0 4.794-3.901 6.315-8.542 6.315-2.602 0-5.201-0.188-7.986-1.004v-4.938h7.539c0.26 0 0.78 0.036 0.78-0.373 0-0.259-0.298-0.294-0.78-0.37-2.859-0.443-7.539-1.15-7.539-6.314 0-4.79 4.123-6.312 8.729-6.312z" fill="#D7D7D6"/>
<path d="m17.64 53.201c0-6.02 2.6-9.658 9.473-9.658 6.871 0 9.47 3.641 9.47 9.658 0 6.014-2.599 9.652-9.47 9.652-6.874 0.001-9.473-3.639-9.473-9.652zm7.801 0c0 2.781 0.297 3.711 1.671 3.711 1.375 0 1.671-0.93 1.671-3.711 0-2.788-0.297-3.715-1.671-3.715s-1.671 0.927-1.671 3.715z" fill="#D7D7D6"/>
<path d="m38.999 49.486v-4.942c2.787-0.592 5.679-1.001 8.17-1.001 5.05 0 7.983 1.039 7.983 6.389v12.553h-6.684l-0.743-1.854h-0.074c-1.189 1.711-2.525 2.229-4.568 2.229-3.528 0-5.202-3.008-5.202-6.125 0-5.203 3.905-5.941 6.131-5.941h3.713v-0.561c0-0.562-0.259-0.742-1.486-0.742h-7.24v-0.005zm8.727 5.571h-1.299c-0.556 0-1.113 0.188-1.113 1.111 0 1.038 0.742 1.115 1.113 1.115 0.373 0 1.299-0.186 1.299-1.486v-0.74z" fill="#D7D7D6"/>
<path d="m64.81 71.979h-7.427v-28.065h6.687l0.74 1.855h0.076c1.041-1.485 2.153-2.229 4.013-2.229 4.455 0 6.685 3.642 6.685 9.657s-2.604 9.652-8.545 9.652c-0.556 0-1.484-0.074-2.229-0.188v9.318zm0-15.067h1.3c1.374 0 1.672-1.114 1.672-3.711 0-2.604-0.112-3.901-1.486-3.901-0.37 0-1.486 0.187-1.486 1.485v6.127z" fill="#D7D7D6"/>
<path d="m77.439 62.482v-25.995h7.429v9.283h0.073c1.039-1.481 2.154-2.228 4.013-2.228 4.456 0 6.685 3.454 6.685 9.47s-2.97 9.471-8.912 9.471h-9.288v-0.001zm7.429-5.828h1.3c1.374 0 1.672-1.412 1.672-3.643 0-2.414-0.109-3.717-1.484-3.717-0.373 0-1.482 0.188-1.482 1.482l-0.006 5.878z" fill="#D7D7D6"/>
<path d="m97.125 53.201c0-6.02 2.6-9.658 9.471-9.658 6.87 0 9.471 3.641 9.471 9.658 0 6.014-2.601 9.652-9.471 9.652-6.875 0.001-9.475-3.639-9.475-9.652zm7.795 0c0 2.781 0.299 3.711 1.672 3.711 1.375 0 1.672-0.93 1.672-3.711 0-2.788-0.297-3.715-1.672-3.715-1.37 0-1.67 0.927-1.67 3.715z" fill="#D7D7D6"/>
<path d="m125.72 58.027l-2.117 4.455h-7.726l5.94-10.026-5.422-8.542h8.354l1.71 3.713 2.009-3.713h7.534l-5.459 8.542 5.94 10.026h-8.538l-2.21-4.455z" fill="#D7D7D6"/>
<g fill="#F29B17">
	<path d="m67.917 71.916v-6.098h2.374c2.197 0 2.645 1.525 2.645 3.05s-0.447 3.048-2.645 3.048h-2.374zm2.108-1.615c0.851 0 0.938-0.67 0.938-1.434 0-0.762-0.088-1.432-0.938-1.432h-0.229v2.865l0.229 0.001z"/>
	<path d="m74.46 71.916v-6.098h1.881v6.098h-1.881z"/>
	<path d="m80.507 65.73c0.492 0 1.431 0.045 2.104 0.242v1.371h-1.748c-0.938 0-1.026 0.762-1.026 1.52 0 0.765 0.088 1.521 0.67 1.521h0.224v-0.754h-0.354v-1.256h2.234v3.388c-0.674 0.196-1.608 0.243-2.104 0.243-2.194 0-2.646-1.614-2.646-3.14 0.002-1.521 0.45-3.135 2.646-3.135z"/>
	<path d="m84.225 71.916v-6.098h1.881v6.098h-1.881z"/>
	<path d="m90.676 67.436v4.479h-1.881v-4.479h-1.343v-1.617h4.565v1.617h-1.341z"/>
	<path d="m98.473 71.916h-2.061l-0.245-1.075h-1.323l-0.226 1.075h-2.062l1.588-6.141h2.715l1.614 6.141zm-3.325-2.512h0.709l-0.354-1.563h-0.019l-0.336 1.563z"/>
	<path d="m101.7 65.818v4.482h2.24v1.614h-4.123v-6.098h1.883v0.002z"/>
	<path d="m109.62 69.076h-0.018l-0.152 2.84h-1.795l0.324-6.098h2.328l0.562 2.89h0.021l0.545-2.89h2.328l0.344 6.098h-1.789l-0.174-2.84h-0.021l-0.367 2.84h-1.76l-0.38-2.84z"/>
	<path d="m119.8 67.436h-2.333v0.582h1.918v1.613h-1.918v0.67h2.333v1.614h-4.211v-6.097h4.211v1.618z"/>
	<path d="m121.32 71.916v-6.098h2.375c2.195 0 2.646 1.525 2.646 3.05s-0.45 3.048-2.646 3.048h-2.38zm2.11-1.615c0.852 0 0.939-0.67 0.939-1.434 0-0.762-0.09-1.432-0.939-1.432h-0.23v2.865l0.23 0.001z"/>
	<path d="m127.86 71.916v-6.098h1.883v6.098h-1.88z"/>
	<path d="m137 71.916h-2.062l-0.24-1.076h-1.327l-0.227 1.075h-2.062l1.585-6.14h2.72l1.62 6.141zm-3.32-2.512h0.707l-0.35-1.563h-0.021l-0.34 1.563z"/>
</g>
					<defs>
						<path id="SVGID_1_" d="m49.972 21.958c2.205 6.026 3.2 12.202 3.133 18.267h-4.106c0.068-5.597-0.847-11.292-2.881-16.854-2.028-5.553-4.997-10.493-8.652-14.723l3.14-2.648c3.954 4.585 7.168 9.94 9.366 15.958zm8.683-3.173c-2.545-6.972-6.26-13.3-10.928-18.791l-3.156 2.66c4.314 5.055 7.819 10.942 10.228 17.539 2.417 6.608 3.535 13.377 3.495 20.032h4.125c0.03-7.219-1.211-14.46-3.764-21.44zm-31.309-1.61l-27.346 23.048h35.761c0.038-4.083-0.637-8.239-2.121-12.292-1.479-4.055-3.638-7.663-6.294-10.756zm6.447-5.436l-3.14 2.644c2.977 3.472 5.394 7.519 7.053 12.057 1.663 4.547 2.423 9.207 2.386 13.783h4.103c0.039-5.042-0.801-10.18-2.633-15.191-1.83-5.003-4.493-9.465-7.769-13.293z"/>
					</defs>
					<clipPath id="SVGID_2_">
						<use overflow="visible" xlink:href="#SVGID_1_"/>
					</clipPath>
					<path fill="none" d="m49.972 21.958c2.205 6.026 3.2 12.202 3.133 18.267h-4.106c0.068-5.597-0.847-11.292-2.881-16.854-2.028-5.553-4.997-10.493-8.652-14.723l3.14-2.648c3.954 4.585 7.168 9.94 9.366 15.958zm8.683-3.173c-2.545-6.972-6.26-13.3-10.928-18.791l-3.156 2.66c4.314 5.055 7.819 10.942 10.228 17.539 2.417 6.608 3.535 13.377 3.495 20.032h4.125c0.03-7.219-1.211-14.46-3.764-21.44zm-31.309-1.61l-27.346 23.048h35.761c0.038-4.083-0.637-8.239-2.121-12.292-1.479-4.055-3.638-7.663-6.294-10.756zm6.447-5.436l-3.14 2.644c2.977 3.472 5.394 7.519 7.053 12.057 1.663 4.547 2.423 9.207 2.386 13.783h4.103c0.039-5.042-0.801-10.18-2.633-15.191-1.83-5.003-4.493-9.465-7.769-13.293z" clip-path="url(#SVGID_2_)"/>
<path d="m49.972 21.958c2.205 6.026 3.199 12.202 3.133 18.267h-4.105c0.067-5.597-0.848-11.292-2.881-16.854-2.029-5.553-4.998-10.493-8.652-14.723l3.139-2.648c3.954 4.585 7.168 9.94 9.366 15.958z" fill="none"/>
<path d="m58.656 18.785c-2.546-6.972-6.261-13.3-10.929-18.791l-3.155 2.66c4.313 5.055 7.818 10.942 10.227 17.539 2.418 6.608 3.535 13.377 3.496 20.032h4.125c0.029-7.219-1.212-14.46-3.764-21.44z" fill="none"/>
<path d="m27.346 17.175l-27.346 23.048h35.762c0.037-4.083-0.637-8.239-2.121-12.292-1.479-4.055-3.64-7.663-6.295-10.756z" fill="none"/>
<path d="m33.792 11.739l-3.14 2.644c2.978 3.472 5.394 7.519 7.054 12.057 1.662 4.547 2.422 9.207 2.386 13.783h4.103c0.039-5.042-0.801-10.18-2.633-15.191-1.83-5.003-4.493-9.465-7.77-13.293z" fill="none"/>
<path d="m49.972 21.958c2.205 6.026 3.199 12.202 3.133 18.267h-4.105c0.067-5.597-0.848-11.292-2.881-16.854-2.029-5.553-4.998-10.493-8.652-14.723l3.139-2.648c3.954 4.585 7.168 9.94 9.366 15.958z" fill="#D7D7D6"/>
<path d="m58.656 18.785c-2.546-6.972-6.261-13.3-10.929-18.791l-3.155 2.66c4.313 5.055 7.818 10.942 10.227 17.539 2.418 6.608 3.535 13.377 3.496 20.032h4.125c0.029-7.219-1.212-14.46-3.764-21.44z" fill="#D7D7D6"/>
<path d="m27.346 17.175l-27.346 23.048h35.762c0.037-4.083-0.637-8.239-2.121-12.292-1.479-4.055-3.64-7.663-6.295-10.756z" fill="#D7D7D6"/>
<path d="m33.792 11.739l-3.14 2.644c2.978 3.472 5.394 7.519 7.054 12.057 1.662 4.547 2.422 9.207 2.386 13.783h4.103c0.039-5.042-0.801-10.18-2.633-15.191-1.83-5.003-4.493-9.465-7.77-13.293z" fill="#D7D7D6"/>
</svg>
