<?xml version="1.0" encoding="utf-8"?>
<!-- Generator: Adobe Illustrator 18.0.0, SVG Export Plug-In . SVG Version: 6.00 Build 0)  -->
<!DOCTYPE svg PUBLIC "-//W3C//DTD SVG 1.1//EN" "http://www.w3.org/Graphics/SVG/1.1/DTD/svg11.dtd">
<svg version="1.1" id="Layer_1" xmlns="http://www.w3.org/2000/svg" xmlns:xlink="http://www.w3.org/1999/xlink" x="0px" y="0px"
	 viewBox="0 0 137 72" enable-background="new 0 0 137 72" xml:space="preserve">
<g>
	<path fill="#D6D6D5" d="M8.7,43.4c2.6,0,4.3,0.2,7.1,1v4.9H9.1c-0.4,0-0.9,0-0.9,0.4c0,0.3,0.2,0.3,0.7,0.4
		c2.9,0.4,7.7,1.1,7.7,6.3c0,4.8-3.9,6.3-8.5,6.3c-2.6,0-5.2-0.2-8-1v-4.9h7.5c0.3,0,0.8,0,0.8-0.4C8.3,56.1,8,56,7.5,56
		C4.7,55.5,0,54.8,0,49.7C0,44.9,4.1,43.4,8.7,43.4z"/>
	<path fill="#D6D6D5" d="M17.6,53c0-6,2.6-9.6,9.5-9.6c6.9,0,9.5,3.6,9.5,9.6c0,6-2.6,9.6-9.5,9.6C20.2,62.6,17.6,59,17.6,53z
		 M25.5,53c0,2.8,0.3,3.7,1.7,3.7c1.4,0,1.7-0.9,1.7-3.7c0-2.8-0.3-3.7-1.7-3.7C25.7,49.3,25.5,50.2,25.5,53z"/>
	<path fill="#D6D6D5" d="M39,49.3v-4.9c2.8-0.6,5.7-1,8.2-1c5.1,0,8,1,8,6.4v12.5h-6.7l-0.7-1.8h-0.1c-1.2,1.7-2.5,2.2-4.6,2.2
		c-3.5,0-5.2-3-5.2-6.1c0-5.2,3.9-5.9,6.1-5.9h3.7V50c0-0.6-0.3-0.7-1.5-0.7H39z M47.7,54.9h-1.3c-0.6,0-1.1,0.2-1.1,1.1
		c0,1,0.7,1.1,1.1,1.1c0.4,0,1.3-0.2,1.3-1.5V54.9z"/>
	<path fill="#D6D6D5" d="M64.8,71.7h-7.4v-28h6.7l0.7,1.9h0.1c1-1.5,2.2-2.2,4-2.2c4.5,0,6.7,3.6,6.7,9.6c0,6-2.6,9.6-8.5,9.6
		c-0.6,0-1.5-0.1-2.2-0.2V71.7z M64.8,56.7h1.3c1.4,0,1.7-1.1,1.7-3.7c0-2.6-0.1-3.9-1.5-3.9c-0.4,0-1.5,0.2-1.5,1.5V56.7z"/>
	<path fill="#D6D6D5" d="M77.5,62.3V36.4h7.4v9.2H85c1-1.5,2.2-2.2,4-2.2c4.5,0,6.7,3.4,6.7,9.4c0,6-3,9.4-8.9,9.4H77.5z M84.9,56.4
		h1.3c1.4,0,1.7-1.4,1.7-3.6c0-2.4-0.1-3.7-1.5-3.7c-0.4,0-1.5,0.2-1.5,1.5V56.4z"/>
	<path fill="#D6D6D5" d="M97.2,53c0-6,2.6-9.6,9.5-9.6c6.9,0,9.5,3.6,9.5,9.6c0,6-2.6,9.6-9.5,9.6C99.8,62.6,97.2,59,97.2,53z
		 M105,53c0,2.8,0.3,3.7,1.7,3.7c1.4,0,1.7-0.9,1.7-3.7c0-2.8-0.3-3.7-1.7-3.7C105.3,49.3,105,50.2,105,53z"/>
	<path fill="#D6D6D5" d="M125.8,57.8l-2.1,4.4h-7.7l5.9-10l-5.4-8.5h8.4l1.7,3.7l2-3.7h7.5l-5.5,8.5l5.9,10H128L125.8,57.8z"/>
	<g>
		<defs>
			<path id="SVGID_1_" d="M51.4,21.9c2.2,6,3.2,12.2,3.1,18.2h-4.1c0.1-5.6-0.8-11.3-2.9-16.8c-2-5.5-5-10.5-8.7-14.7L42.1,6
				C46,10.6,49.2,15.9,51.4,21.9z M60.1,18.7C57.6,11.8,53.9,5.5,49.2,0L46,2.6c4.3,5,7.8,10.9,10.2,17.5c2.4,6.6,3.5,13.3,3.5,20
				h4.1C63.9,32.9,62.7,25.7,60.1,18.7z M28.8,17.1l-27.4,23h35.8c0-4.1-0.6-8.2-2.1-12.2C33.6,23.8,31.5,20.2,28.8,17.1z
				 M35.2,11.7l-3.1,2.6c3,3.5,5.4,7.5,7.1,12c1.7,4.5,2.4,9.2,2.4,13.7h4.1c0-5-0.8-10.1-2.6-15.1C41.2,20,38.5,15.5,35.2,11.7z"/>
		</defs>
		<clipPath id="SVGID_2_">
			<use xlink:href="#SVGID_1_"  overflow="visible"/>
		</clipPath>
		<path clip-path="url(#SVGID_2_)" fill="#B2B1B1" d="M51.4,21.9c2.2,6,3.2,12.2,3.1,18.2h-4.1c0.1-5.6-0.8-11.3-2.9-16.8
			c-2-5.5-5-10.5-8.7-14.7L42.1,6C46,10.6,49.2,15.9,51.4,21.9z M60.1,18.7C57.6,11.8,53.9,5.5,49.2,0L46,2.6
			c4.3,5,7.8,10.9,10.2,17.5c2.4,6.6,3.5,13.3,3.5,20h4.1C63.9,32.9,62.7,25.7,60.1,18.7z M28.8,17.1l-27.4,23h35.8
			c0-4.1-0.6-8.2-2.1-12.2C33.6,23.8,31.5,20.2,28.8,17.1z M35.2,11.7l-3.1,2.6c3,3.5,5.4,7.5,7.1,12c1.7,4.5,2.4,9.2,2.4,13.7h4.1
			c0-5-0.8-10.1-2.6-15.1C41.2,20,38.5,15.5,35.2,11.7z"/>
		<path clip-path="url(#SVGID_2_)" fill="#D6D6D5" d="M-11.2,40.9c0,0,42.8,3,90.7-42.3c0.8-2.3-0.1-16.7-0.1-16.7l-20.5-7.1
			c0,0-43.8,16.4-44.7,17.3C13.2-7-10.7,12.9-10.7,12.9l-3.9,11.3l-4,12.5L-11.2,40.9z"/>
	</g>
	<g>
		<path fill="#F3992A" d="M68.9,71.7v-6.9h2.7c2.5,0,3,1.7,3,3.4c0,1.7-0.5,3.4-3,3.4H68.9z M71.3,69.9c1,0,1.1-0.8,1.1-1.6
			c0-0.9-0.1-1.6-1.1-1.6h-0.3v3.2H71.3z"/>
		<path fill="#F3992A" d="M80.1,66.7h-2.6v0.7h2.2v1.8h-2.2v0.8h2.6v1.8h-4.8v-6.9h4.8V66.7z"/>
		<path fill="#F3992A" d="M82.3,69.1c-1.1-0.4-1.7-1.1-1.7-2.3c0-1.3,1-2.1,2.6-2.1c0.7,0,1.4,0.1,2.2,0.3v1.5h-2.2
			c-0.3,0-0.4,0.1-0.4,0.2c0,0.2,0.1,0.3,1,0.6c1.2,0.4,1.9,1,1.9,2.2c0,1.3-0.9,2.2-2.6,2.2c-0.7,0-1.9-0.1-2.6-0.3V70h2.5
			c0.3,0,0.4-0.1,0.4-0.3C83.6,69.4,83.2,69.4,82.3,69.1z"/>
		<path fill="#F3992A" d="M86.4,71.7v-6.9h2.1v6.9H86.4z"/>
		<path fill="#F3992A" d="M92.3,64.8c0.6,0,1.6,0.1,2.4,0.3v1.5h-2c-1.1,0-1.2,0.9-1.2,1.7c0,0.9,0.1,1.7,0.8,1.7h0.3v-0.9h-0.4
			v-1.4h2.5v3.8c-0.8,0.2-1.8,0.3-2.4,0.3c-2.5,0-3-1.8-3-3.5C89.3,66.6,89.8,64.8,92.3,64.8z"/>
		<path fill="#F3992A" d="M95.5,71.7v-6.9h2.1l1.4,3.2h0v-3.2h2v6.9h-2.1l-1.4-2.9h0v2.9H95.5z"/>
		<path fill="#F3992A" d="M113.7,64.9c1.5,0,2.5,0.9,2.5,2.5c0,1.5-1,2.4-2.5,2.4h-0.7v2h-2.1v-6.9H113.7z M113.1,66.7v1.3h0.3
			c0.3,0,0.6-0.1,0.6-0.6c0-0.6-0.3-0.7-0.6-0.7H113.1z"/>
		<path fill="#F3992A" d="M119.2,69.4h-0.3v2.3h-2.1v-6.9h2.8c1.5,0,2.5,1,2.5,2.3c0,0.8-0.3,1.4-0.9,1.8l1.3,2.7h-2.2L119.2,69.4z
			 M118.9,66.7v1h0.4c0.3,0,0.5-0.1,0.5-0.5c0-0.4-0.2-0.5-0.5-0.5H118.9z"/>
		<path fill="#F3992A" d="M122.8,71.7v-6.9h2.1v6.9H122.8z"/>
		<path fill="#F3992A" d="M125.8,71.7v-6.9h2.1l1.4,3.2h0v-3.2h2v6.9h-2.1l-1.4-2.9h0v2.9H125.8z"/>
		<path fill="#F3992A" d="M135.5,66.7v5h-2.1v-5h-1.5v-1.8h5.2v1.8H135.5z"/>
	</g>
	<g>
		<path fill="#F3992A" d="M105.6,72v-7.4h0.6V72H105.6z"/>
	</g>
</g>
</svg>
