<?xml version="1.0" encoding="utf-8"?>
<!-- Generator: Adobe Illustrator 18.0.0, SVG Export Plug-In . SVG Version: 6.00 Build 0)  -->
<!DOCTYPE svg PUBLIC "-//W3C//DTD SVG 1.1//EN" "http://www.w3.org/Graphics/SVG/1.1/DTD/svg11.dtd">
<svg version="1.1" id="Layer_1" xmlns="http://www.w3.org/2000/svg" xmlns:xlink="http://www.w3.org/1999/xlink" x="0px" y="0px"
	 viewBox="0 0 612 792" enable-background="new 0 0 612 792" xml:space="preserve">
<g>
	<defs>
		<rect id="SVGID_1_" x="-0.1" y="332.9" width="612.1" height="188.2"/>
	</defs>
	<defs>
		<rect id="SVGID_2_" x="-0.1" y="332.9" width="612.1" height="188.2"/>
	</defs>
	<clipPath id="SVGID_3_">
		<use xlink:href="#SVGID_1_"  overflow="visible"/>
	</clipPath>
	<clipPath id="SVGID_4_" clip-path="url(#SVGID_3_)">
		<use xlink:href="#SVGID_2_"  overflow="visible"/>
	</clipPath>
	<g clip-path="url(#SVGID_4_)">
		<defs>
			<rect id="SVGID_5_" x="-0.1" y="332.9" width="612.1" height="188.2"/>
		</defs>
		<clipPath id="SVGID_6_">
			<use xlink:href="#SVGID_5_"  overflow="visible"/>
		</clipPath>
		<rect x="-0.1" y="332.9" clip-path="url(#SVGID_6_)" fill="#252525" width="612.1" height="188.2"/>
	</g>
	<g clip-path="url(#SVGID_4_)">
		<g>
			<defs>
				<rect id="SVGID_7_" x="-0.1" y="332.9" width="612.1" height="188.2"/>
			</defs>
			<clipPath id="SVGID_8_">
				<use xlink:href="#SVGID_7_"  overflow="visible"/>
			</clipPath>
			<polygon clip-path="url(#SVGID_8_)" fill="#7F184E" points="327,456.8 327,325.6 414.6,325.6 			"/>
		</g>
	</g>
	<g clip-path="url(#SVGID_4_)">
		<g>
			<defs>
				<rect id="SVGID_9_" x="-0.1" y="332.9" width="612.1" height="188.2"/>
			</defs>
			<clipPath id="SVGID_10_">
				<use xlink:href="#SVGID_9_"  overflow="visible"/>
			</clipPath>
			<polygon clip-path="url(#SVGID_10_)" fill="#8C1B56" points="327,456.8 383.5,487.6 410.6,331.8 			"/>
		</g>
	</g>
	<g clip-path="url(#SVGID_4_)">
		<g>
			<defs>
				<rect id="SVGID_11_" x="-0.1" y="332.9" width="612.1" height="188.2"/>
			</defs>
			<clipPath id="SVGID_12_">
				<use xlink:href="#SVGID_11_"  overflow="visible"/>
			</clipPath>
			<polygon clip-path="url(#SVGID_12_)" fill="#591241" points="410.6,331.8 485.1,452.6 507.7,320.2 			"/>
		</g>
	</g>
	<g clip-path="url(#SVGID_4_)">
		<g>
			<defs>
				<rect id="SVGID_13_" x="-0.1" y="332.9" width="612.1" height="188.2"/>
			</defs>
			<clipPath id="SVGID_14_">
				<use xlink:href="#SVGID_13_"  overflow="visible"/>
			</clipPath>
			<polygon clip-path="url(#SVGID_14_)" fill="#7F184E" points="383.5,487.6 410.6,331.8 485.1,452.6 			"/>
		</g>
	</g>
	<g clip-path="url(#SVGID_4_)">
		<g>
			<defs>
				<rect id="SVGID_15_" x="-0.1" y="332.9" width="612.1" height="188.2"/>
			</defs>
			<clipPath id="SVGID_16_">
				<use xlink:href="#SVGID_15_"  overflow="visible"/>
			</clipPath>
			<polygon clip-path="url(#SVGID_16_)" fill="#511038" points="485.1,452.6 505.7,331.8 538.4,460 			"/>
		</g>
	</g>
	<g clip-path="url(#SVGID_4_)">
		<g>
			<defs>
				<rect id="SVGID_17_" x="-0.1" y="332.9" width="612.1" height="188.2"/>
			</defs>
			<clipPath id="SVGID_18_">
				<use xlink:href="#SVGID_17_"  overflow="visible"/>
			</clipPath>
			<polygon clip-path="url(#SVGID_18_)" fill="#661447" points="485.1,452.6 485.1,536.7 383.5,487.6 			"/>
		</g>
	</g>
	<g clip-path="url(#SVGID_4_)">
		<g>
			<defs>
				<rect id="SVGID_19_" x="-0.1" y="332.9" width="612.1" height="188.2"/>
			</defs>
			<clipPath id="SVGID_20_">
				<use xlink:href="#SVGID_19_"  overflow="visible"/>
			</clipPath>
			<polygon clip-path="url(#SVGID_20_)" fill="#591241" points="383.5,487.6 423.1,576.8 486.6,535.7 			"/>
		</g>
	</g>
	<g clip-path="url(#SVGID_4_)">
		<g>
			<defs>
				<rect id="SVGID_21_" x="-0.1" y="332.9" width="612.1" height="188.2"/>
			</defs>
			<clipPath id="SVGID_22_">
				<use xlink:href="#SVGID_21_"  overflow="visible"/>
			</clipPath>
			<polygon clip-path="url(#SVGID_22_)" fill="#8C1B56" points="383.5,487.6 325.4,525.1 417.9,565.1 			"/>
		</g>
	</g>
	<g clip-path="url(#SVGID_4_)">
		<g>
			<defs>
				<rect id="SVGID_23_" x="-0.1" y="332.9" width="612.1" height="188.2"/>
			</defs>
			<clipPath id="SVGID_24_">
				<use xlink:href="#SVGID_23_"  overflow="visible"/>
			</clipPath>
			<polygon clip-path="url(#SVGID_24_)" fill="#951C55" points="327,456.8 325.4,525.1 383.5,487.6 			"/>
		</g>
	</g>
	<g clip-path="url(#SVGID_4_)">
		<g>
			<defs>
				<rect id="SVGID_25_" x="-0.1" y="332.9" width="612.1" height="188.2"/>
			</defs>
			<clipPath id="SVGID_26_">
				<use xlink:href="#SVGID_25_"  overflow="visible"/>
			</clipPath>
			<polygon clip-path="url(#SVGID_26_)" fill="#951C55" points="237.4,465 225,357.2 327,456.8 			"/>
		</g>
	</g>
	<g clip-path="url(#SVGID_4_)">
		<g>
			<defs>
				<rect id="SVGID_27_" x="-0.1" y="332.9" width="612.1" height="188.2"/>
			</defs>
			<clipPath id="SVGID_28_">
				<use xlink:href="#SVGID_27_"  overflow="visible"/>
			</clipPath>
			<polygon clip-path="url(#SVGID_28_)" fill="#8C1B56" points="327,456.8 237.4,465 325.4,525.1 			"/>
		</g>
	</g>
	<g clip-path="url(#SVGID_4_)">
		<g>
			<defs>
				<rect id="SVGID_29_" x="-0.1" y="332.9" width="612.1" height="188.2"/>
			</defs>
			<clipPath id="SVGID_30_">
				<use xlink:href="#SVGID_29_"  overflow="visible"/>
			</clipPath>
			<polygon clip-path="url(#SVGID_30_)" fill="#8C1B56" points="327,456.8 225,357.2 327,331.8 			"/>
		</g>
	</g>
	<g clip-path="url(#SVGID_4_)">
		<g>
			<defs>
				<rect id="SVGID_31_" x="-0.1" y="332.9" width="612.1" height="188.2"/>
			</defs>
			<clipPath id="SVGID_32_">
				<use xlink:href="#SVGID_31_"  overflow="visible"/>
			</clipPath>
			<polygon clip-path="url(#SVGID_32_)" fill="#7F184E" points="225,357.2 165.4,422.9 237.4,465 			"/>
		</g>
	</g>
	<g clip-path="url(#SVGID_4_)">
		<g>
			<defs>
				<rect id="SVGID_33_" x="-0.1" y="332.9" width="612.1" height="188.2"/>
			</defs>
			<clipPath id="SVGID_34_">
				<use xlink:href="#SVGID_33_"  overflow="visible"/>
			</clipPath>
			<polygon clip-path="url(#SVGID_34_)" fill="#951C55" points="165.4,422.9 157.2,500.9 237.4,465 			"/>
		</g>
	</g>
	<g clip-path="url(#SVGID_4_)">
		<g>
			<defs>
				<rect id="SVGID_35_" x="-0.1" y="332.9" width="612.1" height="188.2"/>
			</defs>
			<clipPath id="SVGID_36_">
				<use xlink:href="#SVGID_35_"  overflow="visible"/>
			</clipPath>
			<polygon clip-path="url(#SVGID_36_)" fill="#7F184E" points="157.2,500.9 198.9,527 325.4,525.1 237.4,465 			"/>
		</g>
	</g>
	<g clip-path="url(#SVGID_4_)">
		<g>
			<defs>
				<rect id="SVGID_37_" x="-0.1" y="332.9" width="612.1" height="188.2"/>
			</defs>
			<clipPath id="SVGID_38_">
				<use xlink:href="#SVGID_37_"  overflow="visible"/>
			</clipPath>
			<polygon clip-path="url(#SVGID_38_)" fill="#591241" points="225,357.2 195.3,325.6 327,331.8 			"/>
		</g>
	</g>
	<g clip-path="url(#SVGID_4_)">
		<g>
			<defs>
				<rect id="SVGID_39_" x="-0.1" y="332.9" width="612.1" height="188.2"/>
			</defs>
			<clipPath id="SVGID_40_">
				<use xlink:href="#SVGID_39_"  overflow="visible"/>
			</clipPath>
			<polygon clip-path="url(#SVGID_40_)" fill="#511038" points="225,357.2 153.7,281.3 127.6,382.1 			"/>
		</g>
	</g>
	<g clip-path="url(#SVGID_4_)">
		<g>
			<defs>
				<rect id="SVGID_41_" x="-0.1" y="332.9" width="612.1" height="188.2"/>
			</defs>
			<clipPath id="SVGID_42_">
				<use xlink:href="#SVGID_41_"  overflow="visible"/>
			</clipPath>
			<polygon clip-path="url(#SVGID_42_)" fill="#8C1B56" points="127.6,382.1 165.4,422.9 225,357.2 			"/>
		</g>
	</g>
	<g clip-path="url(#SVGID_4_)">
		<g>
			<defs>
				<rect id="SVGID_43_" x="-0.1" y="332.9" width="612.1" height="188.2"/>
			</defs>
			<clipPath id="SVGID_44_">
				<use xlink:href="#SVGID_43_"  overflow="visible"/>
			</clipPath>
			<polygon clip-path="url(#SVGID_44_)" fill="#661447" points="127.6,382.1 56.7,458 165.4,422.9 			"/>
		</g>
	</g>
	<g clip-path="url(#SVGID_4_)">
		<g>
			<defs>
				<rect id="SVGID_45_" x="-0.1" y="332.9" width="612.1" height="188.2"/>
			</defs>
			<clipPath id="SVGID_46_">
				<use xlink:href="#SVGID_45_"  overflow="visible"/>
			</clipPath>
			<polygon clip-path="url(#SVGID_46_)" fill="#591241" points="157.2,500.9 56.7,458 165.4,422.9 			"/>
		</g>
	</g>
	<rect x="-0.1" y="332.9" clip-path="url(#SVGID_4_)" fill="none" width="612.1" height="188.2"/>
	<polygon clip-path="url(#SVGID_4_)" fill="#511038" points="56.7,458 -0.1,332.9 127.6,382.1 	"/>
	<g clip-path="url(#SVGID_4_)">
		<g>
			<defs>
				<rect id="SVGID_47_" x="-0.1" y="332.9" width="612.1" height="188.2"/>
			</defs>
			<clipPath id="SVGID_48_">
				<use xlink:href="#SVGID_47_"  overflow="visible"/>
			</clipPath>
			<polygon clip-path="url(#SVGID_48_)" fill="#8C1B56" points="157.2,500.9 136.2,532 176.3,549.9 198.9,527 			"/>
		</g>
	</g>
	<g clip-path="url(#SVGID_4_)">
		<g>
			<defs>
				<rect id="SVGID_49_" x="-0.1" y="332.9" width="612.1" height="188.2"/>
			</defs>
			<clipPath id="SVGID_50_">
				<use xlink:href="#SVGID_49_"  overflow="visible"/>
			</clipPath>
			<polygon clip-path="url(#SVGID_50_)" fill="#511038" points="56.7,458 83.6,555.4 118.7,543.7 136.2,532 157.2,500.9 			"/>
		</g>
	</g>
	<g clip-path="url(#SVGID_4_)">
		<g>
			<defs>
				<rect id="SVGID_51_" x="-0.1" y="332.9" width="612.1" height="188.2"/>
			</defs>
			<clipPath id="SVGID_52_">
				<use xlink:href="#SVGID_51_"  overflow="visible"/>
			</clipPath>
			<polygon clip-path="url(#SVGID_52_)" fill="#591241" points="485.1,452.6 485.1,536.7 538.4,460 			"/>
		</g>
	</g>
	<g clip-path="url(#SVGID_4_)">
		<g>
			<defs>
				<rect id="SVGID_53_" x="-0.1" y="332.9" width="612.1" height="188.2"/>
			</defs>
			<clipPath id="SVGID_54_">
				<use xlink:href="#SVGID_53_"  overflow="visible"/>
			</clipPath>
			<polygon clip-path="url(#SVGID_54_)" fill="#4C0F32" points="538.4,460 575.4,533.2 485.5,536.1 			"/>
		</g>
	</g>
	<g clip-path="url(#SVGID_4_)">
		<g>
			<defs>
				<rect id="SVGID_55_" x="-0.1" y="332.9" width="612.1" height="188.2"/>
			</defs>
			<clipPath id="SVGID_56_">
				<use xlink:href="#SVGID_55_"  overflow="visible"/>
			</clipPath>
			<polygon clip-path="url(#SVGID_56_)" fill="#4C0F32" points="-0.1,521.1 56.7,458 75.7,527 51.3,536.7 37.3,531.6 			"/>
		</g>
	</g>
	<g clip-path="url(#SVGID_4_)">
		<g>
			<defs>
				<rect id="SVGID_57_" x="-0.1" y="332.9" width="612.1" height="188.2"/>
			</defs>
			<clipPath id="SVGID_58_">
				<use xlink:href="#SVGID_57_"  overflow="visible"/>
			</clipPath>
			<polygon clip-path="url(#SVGID_58_)" fill="#4C0F32" points="538.4,460 505.7,331.8 607,331.7 			"/>
		</g>
	</g>
	<g clip-path="url(#SVGID_4_)">
		<g>
			<defs>
				<rect id="SVGID_59_" x="-0.1" y="332.9" width="612.1" height="188.2"/>
			</defs>
			<clipPath id="SVGID_60_">
				<use xlink:href="#SVGID_59_"  overflow="visible"/>
			</clipPath>
			<polygon clip-path="url(#SVGID_60_)" fill="#4C0F32" points="-0.1,332.9 127.6,382.1 141.2,329.7 63.8,315.1 			"/>
		</g>
	</g>
</g>
</svg>
