<?xml version="1.0" encoding="UTF-8" standalone="no"?>
<!-- Generator: Adobe Illustrator 15.0.0, SVG Export Plug-In . SVG Version: 6.00 Build 0)  -->
<!DOCTYPE svg  PUBLIC '-//W3C//DTD SVG 1.1//EN'  'http://www.w3.org/Graphics/SVG/1.1/DTD/svg11.dtd'>
<svg id="Layer_1" xmlns="http://www.w3.org/2000/svg" xml:space="preserve" height="61.881px" viewBox="0 0 34 61.881" width="34px" version="1.1" y="0px" x="0px" xmlns:xlink="http://www.w3.org/1999/xlink" enable-background="new 0 0 34 61.881">
	<path d="m33.167 33.634c-0.556-0.545-1.222-0.818-2.001-0.818h-28.333c-0.778 0-1.446 0.273-2.001 0.818-0.554 0.547-0.832 1.203-0.832 1.97v18.961c0 0.767 0.277 1.424 0.832 1.969 0.555 0.547 1.223 0.82 2.001 0.82h9.634c0 0.439-0.095 0.894-0.283 1.357-0.189 0.465-0.378 0.87-0.567 1.221-0.188 0.35-0.283 0.604-0.283 0.768 0 0.303 0.112 0.562 0.337 0.784 0.224 0.221 0.49 0.331 0.797 0.331h9.066c0.307 0 0.573-0.11 0.797-0.331 0.224-0.222 0.337-0.481 0.337-0.784 0-0.15-0.096-0.404-0.283-0.759-0.189-0.354-0.378-0.767-0.566-1.236-0.188-0.471-0.282-0.921-0.282-1.351h9.633c0.778 0 1.444-0.273 2.001-0.82 0.553-0.546 0.83-1.203 0.83-1.969v-18.961c-0.001-0.767-0.278-1.423-0.834-1.97zm-1.433 16.47c0 0.151-0.057 0.282-0.17 0.393-0.11 0.11-0.244 0.165-0.397 0.165h-28.334c-0.153 0-0.286-0.055-0.398-0.165-0.111-0.11-0.168-0.241-0.168-0.393v-14.5c0-0.152 0.056-0.282 0.168-0.393s0.245-0.166 0.398-0.166h28.333c0.154 0 0.287 0.055 0.398 0.166 0.11 0.11 0.168 0.24 0.168 0.393v14.499h0.002z" fill="#F19A16"/>
	<path d="m33.167 0.884c-0.556-0.545-1.222-0.819-2.001-0.819h-28.333c-0.778 0-1.446 0.274-2.001 0.819-0.554 0.546-0.832 1.203-0.832 1.97v18.961c0 0.767 0.277 1.424 0.832 1.969 0.555 0.547 1.223 0.82 2.001 0.82h9.634c0 0.439-0.095 0.894-0.283 1.357-0.189 0.465-0.378 0.871-0.567 1.221-0.188 0.35-0.283 0.604-0.283 0.768 0 0.303 0.112 0.562 0.337 0.784 0.224 0.221 0.49 0.331 0.797 0.331h9.066c0.307 0 0.573-0.11 0.797-0.331 0.224-0.222 0.337-0.481 0.337-0.784 0-0.15-0.096-0.404-0.283-0.759-0.189-0.354-0.378-0.767-0.566-1.236-0.188-0.471-0.282-0.921-0.282-1.351h9.633c0.778 0 1.444-0.273 2.001-0.82 0.553-0.546 0.83-1.203 0.83-1.969v-18.961c-0.001-0.767-0.278-1.424-0.834-1.97zm-1.433 16.47c0 0.151-0.057 0.282-0.17 0.393-0.11 0.11-0.244 0.165-0.397 0.165h-28.334c-0.153 0-0.286-0.055-0.398-0.165-0.111-0.11-0.168-0.241-0.168-0.393v-14.5c0-0.152 0.056-0.282 0.168-0.393 0.112-0.11 0.245-0.165 0.398-0.165h28.333c0.154 0 0.287 0.055 0.398 0.165 0.11 0.111 0.168 0.241 0.168 0.393v14.499h0.002z" fill="#909090"/>
</svg>
