<?xml version="1.0" encoding="utf-8"?>
<!-- Generator: Adobe Illustrator 15.0.0, SVG Export Plug-In . SVG Version: 6.00 Build 0)  -->
<!DOCTYPE svg PUBLIC "-//W3C//DTD SVG 1.1//EN" "http://www.w3.org/Graphics/SVG/1.1/DTD/svg11.dtd">
<svg version="1.1" id="Layer_1" xmlns="http://www.w3.org/2000/svg" xmlns:xlink="http://www.w3.org/1999/xlink" x="0px" y="0px"
	 width="34px" height="61.881px" viewBox="0 0 34 61.881" enable-background="new 0 0 34 61.881" xml:space="preserve">
<g>
	<path fill="#909090" d="M2.502,21.167v7.961h7.963l15.924-15.923l-7.961-7.963L2.502,21.167z M9.45,26.678H7.403V24.23h-2.45
		v-2.049l1.741-1.742l4.497,4.498L9.45,26.678z M19.039,8.497c0.279,0,0.42,0.14,0.42,0.421c0,0.127-0.044,0.236-0.133,0.326
		L8.952,19.617c-0.09,0.089-0.196,0.134-0.325,0.134c-0.279,0-0.421-0.142-0.421-0.421c0-0.127,0.046-0.235,0.134-0.325L18.713,8.63
		C18.803,8.542,18.911,8.497,19.039,8.497L19.039,8.497z"/>
	<path fill="#909090" d="M30.789,5.337l-4.496-4.478c-0.484-0.484-1.064-0.727-1.742-0.727c-0.688,0-1.264,0.243-1.724,0.727
		l-3.176,3.158l7.962,7.962l3.177-3.177c0.472-0.472,0.708-1.045,0.708-1.722C31.498,6.417,31.262,5.835,30.789,5.337L30.789,5.337z
		"/>
</g>
<g>
	<path fill="#F19A16" d="M2.502,53.917v7.961h7.963l15.924-15.923l-7.961-7.964L2.502,53.917z M9.45,59.428H7.403v-2.448h-2.45
		v-2.049l1.741-1.742l4.497,4.498L9.45,59.428z M19.039,41.246c0.279,0,0.42,0.14,0.42,0.421c0,0.127-0.044,0.236-0.133,0.326
		L8.952,52.366C8.862,52.455,8.756,52.5,8.627,52.5c-0.279,0-0.421-0.142-0.421-0.421c0-0.127,0.046-0.235,0.134-0.325L18.713,41.38
		C18.803,41.291,18.911,41.246,19.039,41.246L19.039,41.246z"/>
	<path fill="#F19A16" d="M30.789,38.087l-4.496-4.479c-0.484-0.483-1.064-0.727-1.742-0.727c-0.688,0-1.264,0.243-1.724,0.727
		l-3.176,3.158l7.962,7.963l3.177-3.178c0.472-0.472,0.708-1.045,0.708-1.722C31.498,39.167,31.262,38.585,30.789,38.087
		L30.789,38.087z"/>
</g>
</svg>
