<?xml version="1.0" encoding="UTF-8" standalone="no"?>
<!-- Generator: Adobe Illustrator 15.0.0, SVG Export Plug-In . SVG Version: 6.00 Build 0)  -->
<!DOCTYPE svg  PUBLIC '-//W3C//DTD SVG 1.1//EN'  'http://www.w3.org/Graphics/SVG/1.1/DTD/svg11.dtd'>
<svg id="Layer_1" xmlns="http://www.w3.org/2000/svg" xml:space="preserve" height="61.881px" viewBox="0 0 34 61.881" width="34px" version="1.1" y="0px" x="0px" xmlns:xlink="http://www.w3.org/1999/xlink" enable-background="new 0 0 34 61.881">
<g id="c163_chart" fill="#909090">
	<path d="m15.461 3.023l-0.002 12.987 12.962 0.004c0 7.174-5.8 12.986-12.96 12.986-7.158 0-12.961-5.812-12.961-12.986 0-7.151 5.764-12.949 12.887-12.99 0.025-0.001 0.051-0.001 0.074-0.001z"/>
	<path d="m17.55 0c7.705 0 13.95 6.262 13.95 13.982l-13.959 0.017s-0.047-13.999 0.009-13.999z"/>
</g>
<g id="c163_chart_1_" fill="#F19A16">
	<path d="m15.46 35.848l-0.002 12.986 12.961 0.004c0 7.174-5.799 12.986-12.959 12.986-7.158 0-12.96-5.812-12.96-12.986 0-7.15 5.764-12.948 12.887-12.989 0.025-0.001 0.05-0.001 0.073-0.001z"/>
	<path d="m17.549 32.824c7.705 0 13.951 6.263 13.951 13.982l-13.959 0.018s-0.047-14 0.008-14z"/>
</g>
</svg>
