<?xml version="1.0" encoding="utf-8"?>
<!-- Generator: Adobe Illustrator 15.0.0, SVG Export Plug-In . SVG Version: 6.00 Build 0)  -->
<!DOCTYPE svg PUBLIC "-//W3C//DTD SVG 1.1//EN" "http://www.w3.org/Graphics/SVG/1.1/DTD/svg11.dtd">
<svg version="1.1" id="Layer_1" xmlns="http://www.w3.org/2000/svg" xmlns:xlink="http://www.w3.org/1999/xlink" x="0px" y="0px"
	 width="34px" height="29px" viewBox="0 0 34 29" enable-background="new 0 0 34 29" xml:space="preserve">
<g>
	<path fill="#909090" d="M33.167,0.688c-0.555-0.545-1.222-0.819-2.001-0.819H2.833c-0.778,0-1.446,0.274-2.001,0.819
		C0.278,1.234,0,1.891,0,2.658v18.961c0,0.767,0.277,1.424,0.832,1.969c0.555,0.547,1.223,0.82,2.001,0.82h9.634
		c0,0.44-0.095,0.894-0.283,1.358c-0.189,0.465-0.378,0.871-0.567,1.221c-0.188,0.349-0.283,0.604-0.283,0.767
		c0,0.302,0.112,0.563,0.337,0.784c0.224,0.221,0.49,0.331,0.797,0.331h9.066c0.307,0,0.573-0.11,0.797-0.331
		s0.337-0.482,0.337-0.784c0-0.15-0.095-0.404-0.283-0.759c-0.189-0.354-0.378-0.767-0.567-1.236
		c-0.188-0.471-0.283-0.921-0.283-1.351h9.633c0.779,0,1.446-0.273,2.001-0.82C33.722,23.042,34,22.385,34,21.619V2.658
		C34,1.891,33.722,1.234,33.167,0.688L33.167,0.688z M31.734,17.157c0,0.151-0.057,0.282-0.169,0.393
		c-0.111,0.11-0.245,0.165-0.398,0.165H2.833c-0.153,0-0.286-0.055-0.398-0.165c-0.111-0.11-0.168-0.241-0.168-0.393V2.658
		c0-0.152,0.056-0.282,0.168-0.393C2.547,2.155,2.68,2.1,2.833,2.1h28.333c0.154,0,0.287,0.055,0.398,0.165
		c0.112,0.111,0.169,0.241,0.169,0.393V17.157z M31.734,17.157"/>
</g>
</svg>
